<?xml version="1.0" standalone="yes"?>

<svg version="1.1" viewBox="0.0 0.0 960.0 720.0" fill="none" stroke="none" stroke-linecap="square" stroke-miterlimit="10" xmlns="http://www.w3.org/2000/svg" xmlns:xlink="http://www.w3.org/1999/xlink"><clipPath id="p.0"><path d="m0 0l960.0 0l0 720.0l-960.0 0l0 -720.0z" clip-rule="nonzero"></path></clipPath><g clip-path="url(#p.0)"><path fill="#000000" fill-opacity="0.0" d="m0 0l960.0 0l0 720.0l-960.0 0z" fill-rule="nonzero"></path><path fill="#8d1a18" d="m624.0 176.0l4.0 0l0 248.0l-4.0 0z" fill-rule="nonzero"></path><path fill="#8d1a18" d="m288.0 176.0l4.0 0l0 48.0l-4.0 0z" fill-rule="nonzero"></path><path fill="#8d1a18" d="m512.0 176.0l4.0 0l0 208.0l-4.0 0z" fill-rule="nonzero"></path><path fill="#337ab7" d="m568.0 176.0l4.0 0l0 248.0l-4.0 0z" fill-rule="nonzero"></path><path fill="#337ab7" d="m456.0 176.0l4.0 0l0 168.0l-4.0 0z" fill-rule="nonzero"></path><path fill="#8d1a18" d="m400.0 176.0l4.0 0l0 128.0l-4.0 0z" fill-rule="nonzero"></path><path fill="#337ab7" d="m344.0 176.0l4.0 0l0 88.0l-4.0 0z" fill-rule="nonzero"></path><path fill="#e9a320" d="m288.0 192.0l224.0 0l0 32.0l-224.0 0z" fill-rule="nonzero"></path><path fill="#ffffff" d="m301.57812 207.37312l0.9375 0q1.359375 0 2.0 -0.453125q0.65625 -0.453125 0.65625 -1.421875q0 -0.96875 -0.671875 -1.375q-0.65625 -0.40625 -2.046875 -0.40625l-0.875 0l0 3.65625zm0 2.34375l0 5.203125l-2.875 0l0 -13.5625l3.953125 0q2.765625 0 4.09375 1.015625q1.328125 1.0 1.328125 3.046875q0 1.203125 -0.65625 2.140625q-0.65625 0.921875 -1.875 1.453125q3.0625 4.5625 4.0 5.90625l-3.1875 0l-3.25 -5.203125l-1.53125 0zm13.519165 -3.34375q-0.90625 0 -1.421875 0.578125q-0.5 0.5625 -0.578125 1.609375l3.96875 0q-0.015625 -1.046875 -0.546875 -1.609375q-0.515625 -0.578125 -1.421875 -0.578125zm0.390625 8.734375q-2.5 0 -3.90625 -1.375q-1.40625 -1.390625 -1.40625 -3.921875q0 -2.609375 1.296875 -4.03125q1.296875 -1.421875 3.609375 -1.421875q2.1875 0 3.40625 1.25q1.234375 1.25 1.234375 3.453125l0 1.375l-6.6875 0q0.046875 1.203125 0.71875 1.890625q0.671875 0.671875 1.875 0.671875q0.9375 0 1.765625 -0.1875q0.84375 -0.203125 1.75 -0.625l0 2.1875q-0.75 0.375 -1.59375 0.546875q-0.84375 0.1875 -2.0625 0.1875zm9.163116 -0.1875l-2.828125 0l0 -14.4375l2.828125 0l0 14.4375zm7.162201 -8.546875q-0.90625 0 -1.421875 0.578125q-0.5 0.5625 -0.578125 1.609375l3.96875 0q-0.015625 -1.046875 -0.546875 -1.609375q-0.515625 -0.578125 -1.421875 -0.578125zm0.390625 8.734375q-2.5 0 -3.90625 -1.375q-1.40625 -1.390625 -1.40625 -3.921875q0 -2.609375 1.296875 -4.03125q1.296875 -1.421875 3.609375 -1.421875q2.1875 0 3.40625 1.25q1.234375 1.25 1.234375 3.453125l0 1.375l-6.6875 0q0.046875 1.203125 0.71875 1.890625q0.671875 0.671875 1.875 0.671875q0.9375 0 1.765625 -0.1875q0.84375 -0.203125 1.75 -0.625l0 2.1875q-0.75 0.375 -1.59375 0.546875q-0.84375 0.1875 -2.0625 0.1875zm12.928711 -0.1875l-0.546875 -1.40625l-0.078125 0q-0.71875 0.890625 -1.484375 1.25q-0.75 0.34375 -1.953125 0.34375q-1.5 0 -2.359375 -0.84375q-0.859375 -0.859375 -0.859375 -2.4375q0 -1.65625 1.15625 -2.4375q1.15625 -0.78125 3.484375 -0.875l1.796875 -0.046875l0 -0.453125q0 -1.578125 -1.609375 -1.578125q-1.25 0 -2.921875 0.75l-0.9375 -1.921875q1.78125 -0.921875 3.96875 -0.921875q2.09375 0 3.203125 0.90625q1.109375 0.90625 1.109375 2.765625l0 6.90625l-1.96875 0zm-0.84375 -4.8125l-1.09375 0.046875q-1.234375 0.03125 -1.84375 0.4375q-0.59375 0.40625 -0.59375 1.25q0 1.1875 1.375 1.1875q0.984375 0 1.5625 -0.5625q0.59375 -0.5625 0.59375 -1.5l0 -0.859375zm12.752838 1.734375q0 1.59375 -1.109375 2.4375q-1.109375 0.828125 -3.3125 0.828125q-1.140625 0 -1.9375 -0.15625q-0.796875 -0.15625 -1.484375 -0.453125l0 -2.328125q0.78125 0.359375 1.765625 0.609375q1.0 0.25 1.75 0.25q1.53125 0 1.53125 -0.890625q0 -0.328125 -0.203125 -0.53125q-0.203125 -0.21875 -0.703125 -0.46875q-0.5 -0.265625 -1.328125 -0.625q-1.203125 -0.5 -1.765625 -0.921875q-0.5625 -0.4375 -0.8125 -0.984375q-0.25 -0.546875 -0.25 -1.359375q0 -1.390625 1.0625 -2.140625q1.078125 -0.75 3.046875 -0.75q1.875 0 3.640625 0.8125l-0.859375 2.046875q-0.765625 -0.34375 -1.453125 -0.546875q-0.671875 -0.21875 -1.375 -0.21875q-1.25 0 -1.25 0.671875q0 0.390625 0.390625 0.671875q0.40625 0.265625 1.765625 0.8125q1.21875 0.5 1.78125 0.921875q0.578125 0.421875 0.84375 0.984375q0.265625 0.5625 0.265625 1.328125zm6.335968 -5.46875q-0.90625 0 -1.421875 0.578125q-0.5 0.5625 -0.578125 1.609375l3.96875 0q-0.015625 -1.046875 -0.546875 -1.609375q-0.515625 -0.578125 -1.421875 -0.578125zm0.390625 8.734375q-2.5 0 -3.90625 -1.375q-1.40625 -1.390625 -1.40625 -3.921875q0 -2.609375 1.296875 -4.03125q1.296875 -1.421875 3.609375 -1.421875q2.1875 0 3.40625 1.25q1.234375 1.25 1.234375 3.453125l0 1.375l-6.6875 0q0.046875 1.203125 0.71875 1.890625q0.671875 0.671875 1.875 0.671875q0.9375 0 1.765625 -0.1875q0.84375 -0.203125 1.75 -0.625l0 2.1875q-0.75 0.375 -1.59375 0.546875q-0.84375 0.1875 -2.0625 0.1875zm11.399994 -0.1875l0 -13.5625l2.875 0l0 13.5625l-2.875 0zm11.022491 0l0 -13.5625l2.875 0l0 11.1875l5.5 0l0 2.375l-8.375 0zm15.774048 0l-2.875 0l0 -11.171875l-3.6875 0l0 -2.390625l10.25 0l0 2.390625l-3.6875 0l0 11.171875zm11.319519 0l-3.265625 -10.640625l-0.09375 0q0.1875 3.25 0.1875 4.328125l0 6.3125l-2.578125 0l0 -13.5625l3.921875 0l3.203125 10.375l0.0625 0l3.40625 -10.375l3.90625 0l0 13.5625l-2.671875 0l0 -6.421875q0 -0.453125 0 -1.046875q0.015625 -0.59375 0.140625 -3.15625l-0.09375 0l-3.5 10.625l-2.625 0z" fill-rule="nonzero"></path><path fill="#f1bc58" d="m344.0 232.0l56.0 0l0 32.0l-56.0 0z" fill-rule="nonzero"></path><path fill="#ffffff" d="m357.57812 247.37312l0.9375 0q1.359375 0 2.0 -0.453125q0.65625 -0.453125 0.65625 -1.421875q0 -0.96875 -0.671875 -1.375q-0.65625 -0.40625 -2.046875 -0.40625l-0.875 0l0 3.65625zm0 2.34375l0 5.203125l-2.875 0l0 -13.5625l3.953125 0q2.765625 0 4.09375 1.015625q1.328125 1.0 1.328125 3.046875q0 1.203125 -0.65625 2.140625q-0.65625 0.921875 -1.875 1.453125q3.0625 4.5625 4.0 5.90625l-3.1875 0l-3.25 -5.203125l-1.53125 0zm14.2872925 5.203125l0 -13.5625l2.875 0l0 13.5625l-2.875 0zm6.176239 0l0 -13.5625l2.875 0l0 13.5625l-2.875 0z" fill-rule="nonzero"></path><path fill="#f1bc58" d="m456.0 312.0l56.0 0l0 32.0l-56.0 0z" fill-rule="nonzero"></path><path fill="#ffffff" d="m469.57812 327.3731l0.9375 0q1.359375 0 2.0 -0.453125q0.65625 -0.453125 0.65625 -1.421875q0 -0.96875 -0.671875 -1.375q-0.65625 -0.40625 -2.046875 -0.40625l-0.875 0l0 3.65625zm0 2.34375l0 5.203125l-2.875 0l0 -13.5625l3.953125 0q2.765625 0 4.09375 1.015625q1.328125 1.0 1.328125 3.046875q0 1.203125 -0.65625 2.140625q-0.65625 0.921875 -1.875 1.453125q3.0625 4.5625 4.0 5.90625l-3.1875 0l-3.25 -5.203125l-1.53125 0zm14.2872925 5.203125l0 -13.5625l2.875 0l0 13.5625l-2.875 0zm13.910614 -13.5625l2.90625 0l-4.609375 13.5625l-3.125 0l-4.609375 -13.5625l2.90625 0l2.546875 8.0625q0.21875 0.71875 0.4375 1.671875q0.234375 0.953125 0.28125 1.328125q0.109375 -0.859375 0.703125 -3.0l2.5625 -8.0625z" fill-rule="nonzero"></path><path fill="#f1bc58" d="m568.0 392.0l56.0 0l0 32.0l-56.0 0z" fill-rule="nonzero"></path><path fill="#ffffff" d="m581.5781 407.3731l0.9375 0q1.359375 0 2.0 -0.453125q0.65625 -0.453125 0.65625 -1.421875q0 -0.96875 -0.671875 -1.375q-0.65625 -0.40625 -2.046875 -0.40625l-0.875 0l0 3.65625zm0 2.34375l0 5.203125l-2.875 0l0 -13.5625l3.953125 0q2.765625 0 4.09375 1.015625q1.328125 1.0 1.328125 3.046875q0 1.203125 -0.65625 2.140625q-0.65625 0.921875 -1.875 1.453125q3.0625 4.5625 4.0 5.90625l-3.1875 0l-3.25 -5.203125l-1.53125 0zm22.021667 -8.359375l2.90625 0l-4.609375 13.5625l-3.125 0l-4.609375 -13.5625l2.90625 0l2.546875 8.0625q0.21875 0.71875 0.4375 1.671875q0.234375 0.953125 0.28125 1.328125q0.109375 -0.859375 0.703125 -3.0l2.5625 -8.0625zm4.390381 13.5625l0 -13.5625l2.875 0l0 13.5625l-2.875 0z" fill-rule="nonzero"></path><path fill="#e9a320" d="m400.0 272.0l224.0 0l0 32.0l-224.0 0z" fill-rule="nonzero"></path><path fill="#ffffff" d="m413.57812 287.3731l0.9375 0q1.359375 0 2.0 -0.453125q0.65625 -0.453125 0.65625 -1.421875q0 -0.96875 -0.671875 -1.375q-0.65625 -0.40625 -2.046875 -0.40625l-0.875 0l0 3.65625zm0 2.34375l0 5.203125l-2.875 0l0 -13.5625l3.953125 0q2.765625 0 4.09375 1.015625q1.328125 1.0 1.328125 3.046875q0 1.203125 -0.65625 2.140625q-0.65625 0.921875 -1.875 1.453125q3.0625 4.5625 4.0 5.90625l-3.1875 0l-3.25 -5.203125l-1.53125 0zm13.519165 -3.34375q-0.90625 0 -1.421875 0.578125q-0.5 0.5625 -0.578125 1.609375l3.96875 0q-0.015625 -1.046875 -0.546875 -1.609375q-0.515625 -0.578125 -1.421875 -0.578125zm0.390625 8.734375q-2.5 0 -3.90625 -1.375q-1.40625 -1.390625 -1.40625 -3.921875q0 -2.609375 1.296875 -4.03125q1.296875 -1.421875 3.609375 -1.421875q2.1875 0 3.40625 1.25q1.234375 1.25 1.234375 3.453125l0 1.375l-6.6875 0q0.046875 1.203125 0.71875 1.890625q0.671875 0.671875 1.875 0.671875q0.9375 0 1.765625 -0.1875q0.84375 -0.203125 1.75 -0.625l0 2.1875q-0.75 0.375 -1.59375 0.546875q-0.84375 0.1875 -2.0625 0.1875zm9.163116 -0.1875l-2.828125 0l0 -14.4375l2.828125 0l0 14.4375zm7.162201 -8.546875q-0.90625 0 -1.421875 0.578125q-0.5 0.5625 -0.578125 1.609375l3.96875 0q-0.015625 -1.046875 -0.546875 -1.609375q-0.515625 -0.578125 -1.421875 -0.578125zm0.390625 8.734375q-2.5 0 -3.90625 -1.375q-1.40625 -1.390625 -1.40625 -3.921875q0 -2.609375 1.296875 -4.03125q1.296875 -1.421875 3.609375 -1.421875q2.1875 0 3.40625 1.25q1.234375 1.25 1.234375 3.453125l0 1.375l-6.6875 0q0.046875 1.203125 0.71875 1.890625q0.671875 0.671875 1.875 0.671875q0.9375 0 1.765625 -0.1875q0.84375 -0.203125 1.75 -0.625l0 2.1875q-0.75 0.375 -1.59375 0.546875q-0.84375 0.1875 -2.0625 0.1875zm12.928711 -0.1875l-0.546875 -1.40625l-0.078125 0q-0.71875 0.890625 -1.484375 1.25q-0.75 0.34375 -1.953125 0.34375q-1.5 0 -2.359375 -0.84375q-0.859375 -0.859375 -0.859375 -2.4375q0 -1.65625 1.15625 -2.4375q1.15625 -0.78125 3.484375 -0.875l1.796875 -0.046875l0 -0.453125q0 -1.578125 -1.609375 -1.578125q-1.25 0 -2.921875 0.75l-0.9375 -1.921875q1.78125 -0.921875 3.96875 -0.921875q2.09375 0 3.203125 0.90625q1.109375 0.90625 1.109375 2.765625l0 6.90625l-1.96875 0zm-0.84375 -4.8125l-1.09375 0.046875q-1.234375 0.03125 -1.84375 0.4375q-0.59375 0.40625 -0.59375 1.25q0 1.1875 1.375 1.1875q0.984375 0 1.5625 -0.5625q0.59375 -0.5625 0.59375 -1.5l0 -0.859375zm12.752838 1.734375q0 1.59375 -1.109375 2.4375q-1.109375 0.828125 -3.3125 0.828125q-1.140625 0 -1.9375 -0.15625q-0.796875 -0.15625 -1.484375 -0.453125l0 -2.328125q0.78125 0.359375 1.765625 0.609375q1.0 0.25 1.75 0.25q1.53125 0 1.53125 -0.890625q0 -0.328125 -0.203125 -0.53125q-0.203125 -0.21875 -0.703125 -0.46875q-0.5 -0.265625 -1.328125 -0.625q-1.203125 -0.5 -1.765625 -0.921875q-0.5625 -0.4375 -0.8125 -0.984375q-0.25 -0.546875 -0.25 -1.359375q0 -1.390625 1.0625 -2.140625q1.078125 -0.75 3.046875 -0.75q1.875 0 3.640625 0.8125l-0.859375 2.046875q-0.765625 -0.34375 -1.453125 -0.546875q-0.671875 -0.21875 -1.375 -0.21875q-1.25 0 -1.25 0.671875q0 0.390625 0.390625 0.671875q0.40625 0.265625 1.765625 0.8125q1.21875 0.5 1.78125 0.921875q0.578125 0.421875 0.84375 0.984375q0.265625 0.5625 0.265625 1.328125zm6.335968 -5.46875q-0.90625 0 -1.421875 0.578125q-0.5 0.5625 -0.578125 1.609375l3.96875 0q-0.015625 -1.046875 -0.546875 -1.609375q-0.515625 -0.578125 -1.421875 -0.578125zm0.390625 8.734375q-2.5 0 -3.90625 -1.375q-1.40625 -1.390625 -1.40625 -3.921875q0 -2.609375 1.296875 -4.03125q1.296875 -1.421875 3.609375 -1.421875q2.1875 0 3.40625 1.25q1.234375 1.25 1.234375 3.453125l0 1.375l-6.6875 0q0.046875 1.203125 0.71875 1.890625q0.671875 0.671875 1.875 0.671875q0.9375 0 1.765625 -0.1875q0.84375 -0.203125 1.75 -0.625l0 2.1875q-0.75 0.375 -1.59375 0.546875q-0.84375 0.1875 -2.0625 0.1875zm11.399994 -0.1875l0 -13.5625l2.875 0l0 13.5625l-2.875 0zm6.176239 0l0 -13.5625l2.875 0l0 13.5625l-2.875 0zm6.176239 0l0 -13.5625l2.875 0l0 13.5625l-2.875 0zm11.022491 0l0 -13.5625l2.875 0l0 11.1875l5.5 0l0 2.375l-8.375 0zm15.774048 0l-2.875 0l0 -11.171875l-3.6875 0l0 -2.390625l10.25 0l0 2.390625l-3.6875 0l0 11.171875zm11.319519 0l-3.265625 -10.640625l-0.09375 0q0.1875 3.25 0.1875 4.328125l0 6.3125l-2.578125 0l0 -13.5625l3.921875 0l3.203125 10.375l0.0625 0l3.40625 -10.375l3.90625 0l0 13.5625l-2.671875 0l0 -6.421875q0 -0.453125 0 -1.046875q0.015625 -0.59375 0.140625 -3.15625l-0.09375 0l-3.5 10.625l-2.625 0z" fill-rule="nonzero"></path><path fill="#000000" fill-opacity="0.0" d="m274.39896 128.0l32.0 0l0 24.0l-32.0 0z" fill-rule="nonzero"></path><path fill="#8d1a18" d="m293.54822 140.15938q0 2.4375 -0.796875 3.609375q-0.796875 1.15625 -2.453125 1.15625q-1.609375 0 -2.421875 -1.203125q-0.8125 -1.203125 -0.8125 -3.5625q0 -2.453125 0.796875 -3.609375q0.796875 -1.171875 2.4375 -1.171875q1.609375 0 2.421875 1.21875q0.828125 1.21875 0.828125 3.5625zm-4.53125 0q0 1.703125 0.296875 2.453125q0.296875 0.734375 0.984375 0.734375q0.6875 0 0.984375 -0.75q0.3125 -0.75 0.3125 -2.4375q0 -1.703125 -0.3125 -2.453125q-0.296875 -0.75 -0.984375 -0.75q-0.6875 0 -0.984375 0.75q-0.296875 0.75 -0.296875 2.453125z" fill-rule="nonzero"></path><path fill="#000000" fill-opacity="0.0" d="m320.0 135.37534l72.0 0l0 24.0l-72.0 0z" fill-rule="nonzero"></path><path fill="#337ab7" d="m337.42575 148.2847l-2.453125 0l0 -1.390625l2.453125 0l0 -2.46875l1.390625 0l0 2.46875l2.453125 0l0 1.390625l-2.453125 0l0 2.453125l-1.390625 0l0 -2.453125zm11.232697 -3.3125q0 0.875 -0.53125 1.484375q-0.515625 0.609375 -1.46875 0.828125l0 0.046875q1.125 0.140625 1.703125 0.6875q0.578125 0.53125 0.578125 1.453125q0 1.34375 -0.96875 2.09375q-0.96875 0.734375 -2.78125 0.734375q-1.515625 0 -2.671875 -0.5l0 -1.671875q0.53125 0.28125 1.171875 0.453125q0.65625 0.171875 1.296875 0.171875q0.96875 0 1.421875 -0.328125q0.46875 -0.34375 0.46875 -1.0625q0 -0.65625 -0.53125 -0.921875q-0.53125 -0.28125 -1.703125 -0.28125l-0.703125 0l0 -1.5l0.71875 0q1.078125 0 1.578125 -0.28125q0.5 -0.296875 0.5 -0.96875q0 -1.0625 -1.328125 -1.0625q-0.453125 0 -0.921875 0.15625q-0.46875 0.15625 -1.046875 0.53125l-0.90625 -1.359375q1.265625 -0.90625 3.015625 -0.90625q1.453125 0 2.28125 0.578125q0.828125 0.578125 0.828125 1.625zm8.342102 7.203125l-1.9375 0l0 -4.140625q0 -0.765625 -0.265625 -1.15625q-0.25 -0.390625 -0.796875 -0.390625q-0.75 0 -1.09375 0.546875q-0.328125 0.546875 -0.328125 1.796875l0 3.34375l-1.9375 0l0 -7.09375l1.484375 0l0.25 0.90625l0.109375 0q0.296875 -0.484375 0.828125 -0.765625q0.546875 -0.28125 1.234375 -0.28125q1.59375 0 2.15625 1.046875l0.171875 0q0.296875 -0.5 0.84375 -0.765625q0.5625 -0.28125 1.25 -0.28125q1.21875 0 1.828125 0.625q0.625 0.609375 0.625 1.984375l0 4.625l-1.9375 0l0 -4.140625q0 -0.765625 -0.265625 -1.15625q-0.25 -0.390625 -0.8125 -0.390625q-0.703125 0 -1.0625 0.515625q-0.34375 0.5 -0.34375 1.609375l0 3.5625zm8.274841 -3.5625q0 1.0625 0.34375 1.609375q0.34375 0.53125 1.125 0.53125q0.78125 0 1.109375 -0.53125q0.34375 -0.546875 0.34375 -1.609375q0 -1.046875 -0.34375 -1.578125q-0.34375 -0.53125 -1.125 -0.53125q-0.765625 0 -1.109375 0.53125q-0.34375 0.515625 -0.34375 1.578125zm4.90625 0q0 1.734375 -0.921875 2.71875q-0.90625 0.96875 -2.546875 0.96875q-1.015625 0 -1.796875 -0.4375q-0.78125 -0.453125 -1.203125 -1.28125q-0.421875 -0.84375 -0.421875 -1.96875q0 -1.734375 0.90625 -2.703125q0.921875 -0.96875 2.5625 -0.96875q1.015625 0 1.796875 0.453125q0.78125 0.4375 1.203125 1.28125q0.421875 0.828125 0.421875 1.9375zm6.7519836 1.453125q0 1.09375 -0.765625 1.671875q-0.75 0.5625 -2.265625 0.5625q-0.765625 0 -1.3125 -0.109375q-0.546875 -0.09375 -1.03125 -0.296875l0 -1.609375q0.546875 0.265625 1.21875 0.4375q0.671875 0.171875 1.1875 0.171875q1.0625 0 1.0625 -0.609375q0 -0.234375 -0.140625 -0.375q-0.140625 -0.140625 -0.484375 -0.328125q-0.34375 -0.1875 -0.921875 -0.421875q-0.8125 -0.34375 -1.203125 -0.625q-0.375 -0.296875 -0.5625 -0.671875q-0.171875 -0.390625 -0.171875 -0.9375q0 -0.953125 0.734375 -1.46875q0.734375 -0.515625 2.078125 -0.515625q1.28125 0 2.5 0.5625l-0.578125 1.390625q-0.53125 -0.21875 -1.0 -0.359375q-0.46875 -0.15625 -0.953125 -0.15625q-0.859375 0 -0.859375 0.46875q0 0.25 0.28125 0.453125q0.28125 0.1875 1.21875 0.5625q0.828125 0.328125 1.203125 0.625q0.390625 0.296875 0.578125 0.671875q0.1875 0.375 0.1875 0.90625z" fill-rule="nonzero"></path><path fill="#000000" fill-opacity="0.0" d="m376.0 128.0l72.0 0l0 24.0l-72.0 0z" fill-rule="nonzero"></path><path fill="#8d1a18" d="m393.42575 140.90938l-2.453125 0l0 -1.390625l2.453125 0l0 -2.46875l1.390625 0l0 2.46875l2.453125 0l0 1.390625l-2.453125 0l0 2.453125l-1.390625 0l0 -2.453125zm5.0451965 -0.046875q0 -2.765625 1.15625 -4.109375q1.171875 -1.34375 3.5 -1.34375q0.796875 0 1.25 0.09375l0 1.578125q-0.5625 -0.140625 -1.125 -0.140625q-1.0 0 -1.640625 0.3125q-0.640625 0.296875 -0.96875 0.90625q-0.3125 0.59375 -0.359375 1.6875l0.078125 0q0.625 -1.078125 2.015625 -1.078125q1.234375 0 1.9375 0.78125q0.71875 0.78125 0.71875 2.15625q0 1.484375 -0.84375 2.359375q-0.84375 0.859375 -2.328125 0.859375q-1.03125 0 -1.796875 -0.46875q-0.765625 -0.484375 -1.1875 -1.390625q-0.40625 -0.921875 -0.40625 -2.203125zm3.359375 2.5q0.625 0 0.953125 -0.421875q0.34375 -0.421875 0.34375 -1.203125q0 -0.6875 -0.3125 -1.078125q-0.3125 -0.390625 -0.953125 -0.390625q-0.59375 0 -1.015625 0.390625q-0.421875 0.390625 -0.421875 0.90625q0 0.75 0.390625 1.28125q0.40625 0.515625 1.015625 0.515625zm11.170227 1.4375l-1.9375 0l0 -4.140625q0 -0.765625 -0.265625 -1.15625q-0.25 -0.390625 -0.796875 -0.390625q-0.75 0 -1.09375 0.546875q-0.328125 0.546875 -0.328125 1.796875l0 3.34375l-1.9375 0l0 -7.09375l1.484375 0l0.25 0.90625l0.109375 0q0.296875 -0.484375 0.828125 -0.765625q0.546875 -0.28125 1.234375 -0.28125q1.59375 0 2.15625 1.046875l0.171875 0q0.296875 -0.5 0.84375 -0.765625q0.5625 -0.28125 1.25 -0.28125q1.21875 0 1.828125 0.625q0.625 0.609375 0.625 1.984375l0 4.625l-1.9375 0l0 -4.140625q0 -0.765625 -0.265625 -1.15625q-0.25 -0.390625 -0.8125 -0.390625q-0.703125 0 -1.0625 0.515625q-0.34375 0.5 -0.34375 1.609375l0 3.5625zm8.274841 -3.5625q0 1.0625 0.34375 1.609375q0.34375 0.53125 1.125 0.53125q0.78125 0 1.109375 -0.53125q0.34375 -0.546875 0.34375 -1.609375q0 -1.046875 -0.34375 -1.578125q-0.34375 -0.53125 -1.125 -0.53125q-0.765625 0 -1.109375 0.53125q-0.34375 0.515625 -0.34375 1.578125zm4.90625 0q0 1.734375 -0.921875 2.71875q-0.90625 0.96875 -2.546875 0.96875q-1.015625 0 -1.796875 -0.4375q-0.78125 -0.453125 -1.203125 -1.28125q-0.421875 -0.84375 -0.421875 -1.96875q0 -1.734375 0.90625 -2.703125q0.921875 -0.96875 2.5625 -0.96875q1.015625 0 1.796875 0.453125q0.78125 0.4375 1.203125 1.28125q0.421875 0.828125 0.421875 1.9375zm6.7519836 1.453125q0 1.09375 -0.765625 1.671875q-0.75 0.5625 -2.265625 0.5625q-0.765625 0 -1.3125 -0.109375q-0.546875 -0.09375 -1.03125 -0.296875l0 -1.609375q0.546875 0.265625 1.21875 0.4375q0.671875 0.171875 1.1875 0.171875q1.0625 0 1.0625 -0.609375q0 -0.234375 -0.140625 -0.375q-0.140625 -0.140625 -0.484375 -0.328125q-0.34375 -0.1875 -0.921875 -0.421875q-0.8125 -0.34375 -1.203125 -0.625q-0.375 -0.296875 -0.5625 -0.671875q-0.171875 -0.390625 -0.171875 -0.9375q0 -0.953125 0.734375 -1.46875q0.734375 -0.515625 2.078125 -0.515625q1.28125 0 2.5 0.5625l-0.578125 1.390625q-0.53125 -0.21875 -1.0 -0.359375q-0.46875 -0.15625 -0.953125 -0.15625q-0.859375 0 -0.859375 0.46875q0 0.25 0.28125 0.453125q0.28125 0.1875 1.21875 0.5625q0.828125 0.328125 1.203125 0.625q0.390625 0.296875 0.578125 0.671875q0.1875 0.375 0.1875 0.90625z" fill-rule="nonzero"></path><path fill="#000000" fill-opacity="0.0" d="m432.0 135.37534l72.0 0l0 24.0l-72.0 0z" fill-rule="nonzero"></path><path fill="#337ab7" d="m449.42575 148.2847l-2.453125 0l0 -1.390625l2.453125 0l0 -2.46875l1.390625 0l0 2.46875l2.453125 0l0 1.390625l-2.453125 0l0 2.453125l-1.390625 0l0 -2.453125zm11.560822 -1.421875q0 2.734375 -1.15625 4.09375q-1.15625 1.34375 -3.5 1.34375q-0.828125 0 -1.25 -0.09375l0 -1.5625q0.53125 0.125 1.125 0.125q0.984375 0 1.609375 -0.28125q0.640625 -0.296875 0.96875 -0.90625q0.34375 -0.625 0.390625 -1.703125l-0.078125 0q-0.359375 0.59375 -0.84375 0.84375q-0.484375 0.234375 -1.203125 0.234375q-1.21875 0 -1.921875 -0.78125q-0.6875 -0.78125 -0.6875 -2.15625q0 -1.5 0.84375 -2.359375q0.84375 -0.875 2.3125 -0.875q1.03125 0 1.796875 0.484375q0.765625 0.484375 1.171875 1.40625q0.421875 0.90625 0.421875 2.1875zm-3.359375 -2.5q-0.609375 0 -0.953125 0.421875q-0.34375 0.421875 -0.34375 1.203125q0 0.671875 0.3125 1.0625q0.3125 0.390625 0.953125 0.390625q0.59375 0 1.015625 -0.390625q0.421875 -0.390625 0.421875 -0.890625q0 -0.75 -0.390625 -1.265625q-0.390625 -0.53125 -1.015625 -0.53125zm11.373352 7.8125l-1.9375 0l0 -4.140625q0 -0.765625 -0.265625 -1.15625q-0.25 -0.390625 -0.796875 -0.390625q-0.75 0 -1.09375 0.546875q-0.328125 0.546875 -0.328125 1.796875l0 3.34375l-1.9375 0l0 -7.09375l1.484375 0l0.25 0.90625l0.109375 0q0.296875 -0.484375 0.828125 -0.765625q0.546875 -0.28125 1.234375 -0.28125q1.59375 0 2.15625 1.046875l0.171875 0q0.296875 -0.5 0.84375 -0.765625q0.5625 -0.28125 1.25 -0.28125q1.21875 0 1.828125 0.625q0.625 0.609375 0.625 1.984375l0 4.625l-1.9375 0l0 -4.140625q0 -0.765625 -0.265625 -1.15625q-0.25 -0.390625 -0.8125 -0.390625q-0.703125 0 -1.0625 0.515625q-0.34375 0.5 -0.34375 1.609375l0 3.5625zm8.274841 -3.5625q0 1.0625 0.34375 1.609375q0.34375 0.53125 1.125 0.53125q0.78125 0 1.109375 -0.53125q0.34375 -0.546875 0.34375 -1.609375q0 -1.046875 -0.34375 -1.578125q-0.34375 -0.53125 -1.125 -0.53125q-0.765625 0 -1.109375 0.53125q-0.34375 0.515625 -0.34375 1.578125zm4.90625 0q0 1.734375 -0.921875 2.71875q-0.90625 0.96875 -2.546875 0.96875q-1.015625 0 -1.796875 -0.4375q-0.78125 -0.453125 -1.203125 -1.28125q-0.421875 -0.84375 -0.421875 -1.96875q0 -1.734375 0.90625 -2.703125q0.921875 -0.96875 2.5625 -0.96875q1.015625 0 1.796875 0.453125q0.78125 0.4375 1.203125 1.28125q0.421875 0.828125 0.421875 1.9375zm6.7519836 1.453125q0 1.09375 -0.765625 1.671875q-0.75 0.5625 -2.265625 0.5625q-0.765625 0 -1.3125 -0.109375q-0.546875 -0.09375 -1.03125 -0.296875l0 -1.609375q0.546875 0.265625 1.21875 0.4375q0.671875 0.171875 1.1875 0.171875q1.0625 0 1.0625 -0.609375q0 -0.234375 -0.140625 -0.375q-0.140625 -0.140625 -0.484375 -0.328125q-0.34375 -0.1875 -0.921875 -0.421875q-0.8125 -0.34375 -1.203125 -0.625q-0.375 -0.296875 -0.5625 -0.671875q-0.171875 -0.390625 -0.171875 -0.9375q0 -0.953125 0.734375 -1.46875q0.734375 -0.515625 2.078125 -0.515625q1.28125 0 2.5 0.5625l-0.578125 1.390625q-0.53125 -0.21875 -1.0 -0.359375q-0.46875 -0.15625 -0.953125 -0.15625q-0.859375 0 -0.859375 0.46875q0 0.25 0.28125 0.453125q0.28125 0.1875 1.21875 0.5625q0.828125 0.328125 1.203125 0.625q0.390625 0.296875 0.578125 0.671875q0.1875 0.375 0.1875 0.90625z" fill-rule="nonzero"></path><path fill="#000000" fill-opacity="0.0" d="m488.0 128.0l72.0 0l0 24.0l-72.0 0z" fill-rule="nonzero"></path><path fill="#8d1a18" d="m501.6219 140.90938l-2.453125 0l0 -1.390625l2.453125 0l0 -2.46875l1.390625 0l0 2.46875l2.453125 0l0 1.390625l-2.453125 0l0 2.453125l-1.390625 0l0 -2.453125zm9.967102 3.890625l-1.96875 0l0 -5.375l0.015625 -0.875l0.03125 -0.96875q-0.484375 0.484375 -0.671875 0.640625l-1.0625 0.859375l-0.953125 -1.1875l3.0 -2.375l1.609375 0l0 9.28125zm9.248291 0l-6.5 0l0 -1.359375l2.328125 -2.359375q1.046875 -1.0625 1.359375 -1.46875q0.3125 -0.40625 0.453125 -0.75q0.140625 -0.359375 0.140625 -0.734375q0 -0.5625 -0.3125 -0.828125q-0.296875 -0.28125 -0.8125 -0.28125q-0.546875 0 -1.0625 0.25q-0.5 0.25 -1.046875 0.703125l-1.0625 -1.265625q0.6875 -0.578125 1.125 -0.8125q0.453125 -0.25 0.984375 -0.375q0.546875 -0.125 1.203125 -0.125q0.859375 0 1.53125 0.3125q0.671875 0.3125 1.03125 0.890625q0.375 0.5625 0.375 1.296875q0 0.640625 -0.234375 1.203125q-0.21875 0.5625 -0.703125 1.15625q-0.46875 0.59375 -1.65625 1.6875l-1.1875 1.125l0 0.078125l4.046875 0l0 1.65625zm7.967102 0l-1.9375 0l0 -4.140625q0 -0.765625 -0.265625 -1.15625q-0.25 -0.390625 -0.796875 -0.390625q-0.75 0 -1.09375 0.546875q-0.328125 0.546875 -0.328125 1.796875l0 3.34375l-1.9375 0l0 -7.09375l1.484375 0l0.25 0.90625l0.109375 0q0.296875 -0.484375 0.828125 -0.765625q0.546875 -0.28125 1.234375 -0.28125q1.59375 0 2.15625 1.046875l0.171875 0q0.296875 -0.5 0.84375 -0.765625q0.5625 -0.28125 1.25 -0.28125q1.21875 0 1.828125 0.625q0.625 0.609375 0.625 1.984375l0 4.625l-1.9375 0l0 -4.140625q0 -0.765625 -0.265625 -1.15625q-0.25 -0.390625 -0.8125 -0.390625q-0.703125 0 -1.0625 0.515625q-0.34375 0.5 -0.34375 1.609375l0 3.5625zm8.274841 -3.5625q0 1.0625 0.34375 1.609375q0.34375 0.53125 1.125 0.53125q0.78125 0 1.109375 -0.53125q0.34375 -0.546875 0.34375 -1.609375q0 -1.046875 -0.34375 -1.578125q-0.34375 -0.53125 -1.125 -0.53125q-0.765625 0 -1.109375 0.53125q-0.34375 0.515625 -0.34375 1.578125zm4.90625 0q0 1.734375 -0.921875 2.71875q-0.90625 0.96875 -2.546875 0.96875q-1.015625 0 -1.796875 -0.4375q-0.78125 -0.453125 -1.203125 -1.28125q-0.421875 -0.84375 -0.421875 -1.96875q0 -1.734375 0.90625 -2.703125q0.921875 -0.96875 2.5625 -0.96875q1.015625 0 1.796875 0.453125q0.78125 0.4375 1.203125 1.28125q0.421875 0.828125 0.421875 1.9375zm6.752014 1.453125q0 1.09375 -0.765625 1.671875q-0.75 0.5625 -2.265625 0.5625q-0.765625 0 -1.3125 -0.109375q-0.546875 -0.09375 -1.03125 -0.296875l0 -1.609375q0.546875 0.265625 1.21875 0.4375q0.671875 0.171875 1.1875 0.171875q1.0625 0 1.0625 -0.609375q0 -0.234375 -0.140625 -0.375q-0.140625 -0.140625 -0.484375 -0.328125q-0.34375 -0.1875 -0.921875 -0.421875q-0.8125 -0.34375 -1.203125 -0.625q-0.375 -0.296875 -0.5625 -0.671875q-0.171875 -0.390625 -0.171875 -0.9375q0 -0.953125 0.734375 -1.46875q0.734375 -0.515625 2.078125 -0.515625q1.28125 0 2.5 0.5625l-0.578125 1.390625q-0.53125 -0.21875 -1.0 -0.359375q-0.46875 -0.15625 -0.953125 -0.15625q-0.859375 0 -0.859375 0.46875q0 0.25 0.28125 0.453125q0.28125 0.1875 1.21875 0.5625q0.828125 0.328125 1.203125 0.625q0.390625 0.296875 0.578125 0.671875q0.1875 0.375 0.1875 0.90625z" fill-rule="nonzero"></path><path fill="#000000" fill-opacity="0.0" d="m600.0 128.0l72.0 0l0 24.0l-72.0 0z" fill-rule="nonzero"></path><path fill="#8d1a18" d="m613.6219 140.90938l-2.453125 0l0 -1.390625l2.453125 0l0 -2.46875l1.390625 0l0 2.46875l2.453125 0l0 1.390625l-2.453125 0l0 2.453125l-1.390625 0l0 -2.453125zm9.967102 3.890625l-1.96875 0l0 -5.375l0.015625 -0.875l0.03125 -0.96875q-0.484375 0.484375 -0.671875 0.640625l-1.0625 0.859375l-0.953125 -1.1875l3.0 -2.375l1.609375 0l0 9.28125zm5.951416 -9.40625q1.328125 0 2.140625 0.609375q0.828125 0.609375 0.828125 1.640625q0 0.703125 -0.40625 1.265625q-0.390625 0.546875 -1.265625 0.984375q1.046875 0.5625 1.5 1.171875q0.453125 0.609375 0.453125 1.328125q0 1.140625 -0.890625 1.84375q-0.890625 0.6875 -2.359375 0.6875q-1.515625 0 -2.390625 -0.640625q-0.875 -0.65625 -0.875 -1.84375q0 -0.796875 0.421875 -1.40625q0.421875 -0.609375 1.359375 -1.078125q-0.796875 -0.5 -1.140625 -1.078125q-0.34375 -0.578125 -0.34375 -1.25q0 -1.0 0.8125 -1.609375q0.828125 -0.625 2.15625 -0.625zm-1.453125 6.9375q0 0.546875 0.375 0.859375q0.390625 0.296875 1.046875 0.296875q0.734375 0 1.09375 -0.3125q0.359375 -0.3125 0.359375 -0.828125q0 -0.421875 -0.359375 -0.796875q-0.34375 -0.375 -1.15625 -0.796875q-1.359375 0.625 -1.359375 1.578125zm1.4375 -5.5q-0.5 0 -0.8125 0.265625q-0.296875 0.25 -0.296875 0.6875q0 0.375 0.234375 0.6875q0.25 0.296875 0.890625 0.609375q0.625 -0.296875 0.875 -0.59375q0.25 -0.3125 0.25 -0.703125q0 -0.4375 -0.328125 -0.6875q-0.3125 -0.265625 -0.8125 -0.265625zm11.279602 7.96875l-1.9375 0l0 -4.140625q0 -0.765625 -0.265625 -1.15625q-0.25 -0.390625 -0.796875 -0.390625q-0.75 0 -1.09375 0.546875q-0.328125 0.546875 -0.328125 1.796875l0 3.34375l-1.9375 0l0 -7.09375l1.484375 0l0.25 0.90625l0.109375 0q0.296875 -0.484375 0.828125 -0.765625q0.546875 -0.28125 1.234375 -0.28125q1.59375 0 2.15625 1.046875l0.171875 0q0.296875 -0.5 0.84375 -0.765625q0.5625 -0.28125 1.25 -0.28125q1.21875 0 1.828125 0.625q0.625 0.609375 0.625 1.984375l0 4.625l-1.9375 0l0 -4.140625q0 -0.765625 -0.265625 -1.15625q-0.25 -0.390625 -0.8125 -0.390625q-0.703125 0 -1.0625 0.515625q-0.34375 0.5 -0.34375 1.609375l0 3.5625zm8.274841 -3.5625q0 1.0625 0.34375 1.609375q0.34375 0.53125 1.125 0.53125q0.78125 0 1.109375 -0.53125q0.34375 -0.546875 0.34375 -1.609375q0 -1.046875 -0.34375 -1.578125q-0.34375 -0.53125 -1.125 -0.53125q-0.765625 0 -1.109375 0.53125q-0.34375 0.515625 -0.34375 1.578125zm4.90625 0q0 1.734375 -0.921875 2.71875q-0.90625 0.96875 -2.546875 0.96875q-1.015625 0 -1.796875 -0.4375q-0.78125 -0.453125 -1.203125 -1.28125q-0.421875 -0.84375 -0.421875 -1.96875q0 -1.734375 0.90625 -2.703125q0.921875 -0.96875 2.5625 -0.96875q1.015625 0 1.796875 0.453125q0.78125 0.4375 1.203125 1.28125q0.421875 0.828125 0.421875 1.9375zm6.752014 1.453125q0 1.09375 -0.765625 1.671875q-0.75 0.5625 -2.265625 0.5625q-0.765625 0 -1.3125 -0.109375q-0.546875 -0.09375 -1.03125 -0.296875l0 -1.609375q0.546875 0.265625 1.21875 0.4375q0.671875 0.171875 1.1875 0.171875q1.0625 0 1.0625 -0.609375q0 -0.234375 -0.140625 -0.375q-0.140625 -0.140625 -0.484375 -0.328125q-0.34375 -0.1875 -0.921875 -0.421875q-0.8125 -0.34375 -1.203125 -0.625q-0.375 -0.296875 -0.5625 -0.671875q-0.171875 -0.390625 -0.171875 -0.9375q0 -0.953125 0.734375 -1.46875q0.734375 -0.515625 2.078125 -0.515625q1.28125 0 2.5 0.5625l-0.578125 1.390625q-0.53125 -0.21875 -1.0 -0.359375q-0.46875 -0.15625 -0.953125 -0.15625q-0.859375 0 -0.859375 0.46875q0 0.25 0.28125 0.453125q0.28125 0.1875 1.21875 0.5625q0.828125 0.328125 1.203125 0.625q0.390625 0.296875 0.578125 0.671875q0.1875 0.375 0.1875 0.90625z" fill-rule="nonzero"></path><path fill="#000000" fill-opacity="0.0" d="m288.0 159.37534l392.0 0.62991333" fill-rule="nonzero"></path><path stroke="#9d9d9d" stroke-width="3.0" stroke-linejoin="round" stroke-linecap="butt" d="m288.0 159.37534l374.00006 0.6009979" fill-rule="evenodd"></path><path fill="#9d9d9d" stroke="#9d9d9d" stroke-width="3.0" stroke-linecap="butt" d="m661.99207 164.93152l13.622253 -4.933319l-13.606323 -4.977066z" fill-rule="evenodd"></path><path fill="#8d1a18" d="m286.10236 159.29134l0 0c0 -2.209137 1.790863 -4.0 4.0 -4.0l0 0c1.0608826 0 2.0782776 0.4214325 2.8284302 1.1715698c0.7501526 0.7501526 1.1715698 1.7675629 1.1715698 2.8284302l0 0c0 2.209137 -1.790863 4.0 -4.0 4.0l0 0c-2.209137 0 -4.0 -1.790863 -4.0 -4.0z" fill-rule="nonzero"></path><path fill="#337ab7" d="m341.83203 159.6483l0 0c0 -2.2091522 1.790863 -4.0 4.0 -4.0l0 0c1.060852 0 2.0782776 0.42141724 2.8284302 1.1715698c0.7501221 0.7501373 1.1715698 1.7675629 1.1715698 2.8284302l0 0c0 2.209137 -1.790863 4.0 -4.0 4.0l0 0c-2.209137 0 -4.0 -1.790863 -4.0 -4.0z" fill-rule="nonzero"></path><path fill="#8d1a18" d="m397.91602 159.59317l0 0c0 -2.209137 1.790863 -4.0 4.0 -4.0l0 0c1.060852 0 2.0782776 0.4214325 2.8284302 1.1715851c0.7501526 0.7501373 1.1715698 1.7675476 1.1715698 2.828415l0 0c0 2.2091522 -1.790863 4.0 -4.0 4.0l0 0c-2.209137 0 -4.0 -1.7908478 -4.0 -4.0z" fill-rule="nonzero"></path><path fill="#8d1a18" d="m509.937 159.76378l0 0c0 -2.209137 1.790863 -4.0 4.0 -4.0l0 0c1.060852 0 2.078308 0.4214325 2.8284302 1.1715698c0.7501221 0.7501526 1.1715698 1.7675629 1.1715698 2.8284302l0 0c0 2.209137 -1.7908936 4.0 -4.0 4.0l0 0c-2.209137 0 -4.0 -1.790863 -4.0 -4.0z" fill-rule="nonzero"></path><path fill="#337ab7" d="m453.83466 159.75853l0 0c0 -2.209137 1.790863 -4.0 4.0 -4.0l0 0c1.060852 0 2.0782776 0.4214325 2.8284302 1.1715698c0.7501221 0.7501526 1.1715698 1.7675629 1.1715698 2.8284302l0 0c0 2.209137 -1.790863 4.0 -4.0 4.0l0 0c-2.209137 0 -4.0 -1.790863 -4.0 -4.0z" fill-rule="nonzero"></path><path fill="#337ab7" d="m566.03937 159.55643l0 0c0 -2.209137 1.7908936 -4.0 4.0 -4.0l0 0c1.060852 0 2.078308 0.4214325 2.8284302 1.1715698c0.7501221 0.7501526 1.1715698 1.7675629 1.1715698 2.8284302l0 0c0 2.209137 -1.7908325 4.0 -4.0 4.0l0 0c-2.2091064 0 -4.0 -1.790863 -4.0 -4.0z" fill-rule="nonzero"></path><path fill="#8d1a18" d="m621.8688 159.90552l0 0c0 -2.2091522 1.7908325 -4.0 4.0 -4.0l0 0c1.060852 0 2.078247 0.42141724 2.8284302 1.1715698c0.7501221 0.7501373 1.1715698 1.7675629 1.1715698 2.8284302l0 0c0 2.209137 -1.7908936 4.0 -4.0 4.0l0 0c-2.2091675 0 -4.0 -1.790863 -4.0 -4.0z" fill-rule="nonzero"></path><path fill="#000000" fill-opacity="0.0" d="m544.0 136.0l72.0 0l0 24.0l-72.0 0z" fill-rule="nonzero"></path><path fill="#337ab7" d="m557.6219 148.90938l-2.453125 0l0 -1.390625l2.453125 0l0 -2.46875l1.390625 0l0 2.46875l2.453125 0l0 1.390625l-2.453125 0l0 2.453125l-1.390625 0l0 -2.453125zm9.967102 3.890625l-1.96875 0l0 -5.375l0.015625 -0.875l0.03125 -0.96875q-0.484375 0.484375 -0.671875 0.640625l-1.0625 0.859375l-0.953125 -1.1875l3.0 -2.375l1.609375 0l0 9.28125zm6.123291 -5.921875q1.359375 0 2.15625 0.75q0.796875 0.75 0.796875 2.0625q0 1.5625 -0.96875 2.40625q-0.953125 0.828125 -2.734375 0.828125q-1.546875 0 -2.5 -0.5l0 -1.6875q0.5 0.265625 1.15625 0.4375q0.671875 0.15625 1.265625 0.15625q1.796875 0 1.796875 -1.46875q0 -1.40625 -1.859375 -1.40625q-0.328125 0 -0.734375 0.078125q-0.40625 0.0625 -0.671875 0.140625l-0.78125 -0.421875l0.359375 -4.734375l5.03125 0l0 1.65625l-3.3125 0l-0.171875 1.828125l0.21875 -0.046875q0.390625 -0.078125 0.953125 -0.078125zm11.092102 5.921875l-1.9375 0l0 -4.140625q0 -0.765625 -0.265625 -1.15625q-0.25 -0.390625 -0.796875 -0.390625q-0.75 0 -1.09375 0.546875q-0.328125 0.546875 -0.328125 1.796875l0 3.34375l-1.9375 0l0 -7.09375l1.484375 0l0.25 0.90625l0.109375 0q0.296875 -0.484375 0.828125 -0.765625q0.546875 -0.28125 1.234375 -0.28125q1.59375 0 2.15625 1.046875l0.171875 0q0.296875 -0.5 0.84375 -0.765625q0.5625 -0.28125 1.25 -0.28125q1.21875 0 1.828125 0.625q0.625 0.609375 0.625 1.984375l0 4.625l-1.9375 0l0 -4.140625q0 -0.765625 -0.265625 -1.15625q-0.25 -0.390625 -0.8125 -0.390625q-0.703125 0 -1.0625 0.515625q-0.34375 0.5 -0.34375 1.609375l0 3.5625zm8.274841 -3.5625q0 1.0625 0.34375 1.609375q0.34375 0.53125 1.125 0.53125q0.78125 0 1.109375 -0.53125q0.34375 -0.546875 0.34375 -1.609375q0 -1.046875 -0.34375 -1.578125q-0.34375 -0.53125 -1.125 -0.53125q-0.765625 0 -1.109375 0.53125q-0.34375 0.515625 -0.34375 1.578125zm4.90625 0q0 1.734375 -0.921875 2.71875q-0.90625 0.96875 -2.546875 0.96875q-1.015625 0 -1.796875 -0.4375q-0.78125 -0.453125 -1.203125 -1.28125q-0.421875 -0.84375 -0.421875 -1.96875q0 -1.734375 0.90625 -2.703125q0.921875 -0.96875 2.5625 -0.96875q1.015625 0 1.796875 0.453125q0.78125 0.4375 1.203125 1.28125q0.421875 0.828125 0.421875 1.9375zm6.752014 1.453125q0 1.09375 -0.765625 1.671875q-0.75 0.5625 -2.265625 0.5625q-0.765625 0 -1.3125 -0.109375q-0.546875 -0.09375 -1.03125 -0.296875l0 -1.609375q0.546875 0.265625 1.21875 0.4375q0.671875 0.171875 1.1875 0.171875q1.0625 0 1.0625 -0.609375q0 -0.234375 -0.140625 -0.375q-0.140625 -0.140625 -0.484375 -0.328125q-0.34375 -0.1875 -0.921875 -0.421875q-0.8125 -0.34375 -1.203125 -0.625q-0.375 -0.296875 -0.5625 -0.671875q-0.171875 -0.390625 -0.171875 -0.9375q0 -0.953125 0.734375 -1.46875q0.734375 -0.515625 2.078125 -0.515625q1.28125 0 2.5 0.5625l-0.578125 1.390625q-0.53125 -0.21875 -1.0 -0.359375q-0.46875 -0.15625 -0.953125 -0.15625q-0.859375 0 -0.859375 0.46875q0 0.25 0.28125 0.453125q0.28125 0.1875 1.21875 0.5625q0.828125 0.328125 1.203125 0.625q0.390625 0.296875 0.578125 0.671875q0.1875 0.375 0.1875 0.90625z" fill-rule="nonzero"></path><path fill="#e9a320" d="m512.0 352.0l152.0 0l16.0 16.0l-16.0 16.0l-152.0 0z" fill-rule="nonzero"></path><path fill="#ffffff" d="m525.5781 367.3731l0.9375 0q1.359375 0 2.0 -0.453125q0.65625 -0.453125 0.65625 -1.421875q0 -0.96875 -0.671875 -1.375q-0.65625 -0.40625 -2.046875 -0.40625l-0.875 0l0 3.65625zm0 2.34375l0 5.203125l-2.875 0l0 -13.5625l3.953125 0q2.765625 0 4.09375 1.015625q1.328125 1.0 1.328125 3.046875q0 1.203125 -0.65625 2.140625q-0.65625 0.921875 -1.875 1.453125q3.0625 4.5625 4.0 5.90625l-3.1875 0l-3.25 -5.203125l-1.53125 0zm13.519165 -3.34375q-0.90625 0 -1.421875 0.578125q-0.5 0.5625 -0.578125 1.609375l3.96875 0q-0.015625 -1.046875 -0.546875 -1.609375q-0.515625 -0.578125 -1.421875 -0.578125zm0.390625 8.734375q-2.5 0 -3.90625 -1.375q-1.40625 -1.390625 -1.40625 -3.921875q0 -2.609375 1.296875 -4.03125q1.296875 -1.421875 3.609375 -1.421875q2.1875 0 3.40625 1.25q1.234375 1.25 1.234375 3.453125l0 1.375l-6.6875 0q0.046875 1.203125 0.71875 1.890625q0.671875 0.671875 1.875 0.671875q0.9375 0 1.765625 -0.1875q0.84375 -0.203125 1.75 -0.625l0 2.1875q-0.75 0.375 -1.59375 0.546875q-0.84375 0.1875 -2.0625 0.1875zm9.163086 -0.1875l-2.828125 0l0 -14.4375l2.828125 0l0 14.4375zm7.1622314 -8.546875q-0.90625 0 -1.421875 0.578125q-0.5 0.5625 -0.578125 1.609375l3.96875 0q-0.015625 -1.046875 -0.546875 -1.609375q-0.515625 -0.578125 -1.421875 -0.578125zm0.390625 8.734375q-2.5 0 -3.90625 -1.375q-1.40625 -1.390625 -1.40625 -3.921875q0 -2.609375 1.296875 -4.03125q1.296875 -1.421875 3.609375 -1.421875q2.1875 0 3.40625 1.25q1.234375 1.25 1.234375 3.453125l0 1.375l-6.6875 0q0.046875 1.203125 0.71875 1.890625q0.671875 0.671875 1.875 0.671875q0.9375 0 1.765625 -0.1875q0.84375 -0.203125 1.75 -0.625l0 2.1875q-0.75 0.375 -1.59375 0.546875q-0.84375 0.1875 -2.0625 0.1875zm12.928711 -0.1875l-0.546875 -1.40625l-0.078125 0q-0.71875 0.890625 -1.484375 1.25q-0.75 0.34375 -1.953125 0.34375q-1.5 0 -2.359375 -0.84375q-0.859375 -0.859375 -0.859375 -2.4375q0 -1.65625 1.15625 -2.4375q1.15625 -0.78125 3.484375 -0.875l1.796875 -0.046875l0 -0.453125q0 -1.578125 -1.609375 -1.578125q-1.25 0 -2.921875 0.75l-0.9375 -1.921875q1.78125 -0.921875 3.96875 -0.921875q2.09375 0 3.203125 0.90625q1.109375 0.90625 1.109375 2.765625l0 6.90625l-1.96875 0zm-0.84375 -4.8125l-1.09375 0.046875q-1.234375 0.03125 -1.84375 0.4375q-0.59375 0.40625 -0.59375 1.25q0 1.1875 1.375 1.1875q0.984375 0 1.5625 -0.5625q0.59375 -0.5625 0.59375 -1.5l0 -0.859375zm12.752808 1.734375q0 1.59375 -1.109375 2.4375q-1.109375 0.828125 -3.3125 0.828125q-1.140625 0 -1.9375 -0.15625q-0.796875 -0.15625 -1.484375 -0.453125l0 -2.328125q0.78125 0.359375 1.765625 0.609375q1.0 0.25 1.75 0.25q1.53125 0 1.53125 -0.890625q0 -0.328125 -0.203125 -0.53125q-0.203125 -0.21875 -0.703125 -0.46875q-0.5 -0.265625 -1.328125 -0.625q-1.203125 -0.5 -1.765625 -0.921875q-0.5625 -0.4375 -0.8125 -0.984375q-0.25 -0.546875 -0.25 -1.359375q0 -1.390625 1.0625 -2.140625q1.078125 -0.75 3.046875 -0.75q1.875 0 3.640625 0.8125l-0.859375 2.046875q-0.765625 -0.34375 -1.453125 -0.546875q-0.671875 -0.21875 -1.375 -0.21875q-1.25 0 -1.25 0.671875q0 0.390625 0.390625 0.671875q0.40625 0.265625 1.765625 0.8125q1.21875 0.5 1.78125 0.921875q0.578125 0.421875 0.84375 0.984375q0.265625 0.5625 0.265625 1.328125zm6.3359985 -5.46875q-0.90625 0 -1.421875 0.578125q-0.5 0.5625 -0.578125 1.609375l3.96875 0q-0.015625 -1.046875 -0.546875 -1.609375q-0.515625 -0.578125 -1.421875 -0.578125zm0.390625 8.734375q-2.5 0 -3.90625 -1.375q-1.40625 -1.390625 -1.40625 -3.921875q0 -2.609375 1.296875 -4.03125q1.296875 -1.421875 3.609375 -1.421875q2.1875 0 3.40625 1.25q1.234375 1.25 1.234375 3.453125l0 1.375l-6.6875 0q0.046875 1.203125 0.71875 1.890625q0.671875 0.671875 1.875 0.671875q0.9375 0 1.765625 -0.1875q0.84375 -0.203125 1.75 -0.625l0 2.1875q-0.75 0.375 -1.59375 0.546875q-0.84375 0.1875 -2.0625 0.1875zm19.134338 -13.75l2.90625 0l-4.609375 13.5625l-3.125 0l-4.609375 -13.5625l2.90625 0l2.546875 8.0625q0.21875 0.71875 0.4375 1.671875q0.234375 0.953125 0.28125 1.328125q0.109375 -0.859375 0.703125 -3.0l2.5625 -8.0625zm9.236633 13.5625l0 -13.5625l2.875 0l0 11.1875l5.5 0l0 2.375l-8.375 0zm15.774109 0l-2.875 0l0 -11.171875l-3.6875 0l0 -2.390625l10.25 0l0 2.390625l-3.6875 0l0 11.171875zm11.319458 0l-3.265625 -10.640625l-0.09375 0q0.1875 3.25 0.1875 4.328125l0 6.3125l-2.578125 0l0 -13.5625l3.921875 0l3.203125 10.375l0.0625 0l3.40625 -10.375l3.90625 0l0 13.5625l-2.671875 0l0 -6.421875q0 -0.453125 0 -1.046875q0.015625 -0.59375 0.140625 -3.15625l-0.09375 0l-3.5 10.625l-2.625 0z" fill-rule="nonzero"></path></g></svg>

