<?xml version="1.0" standalone="yes"?>

<svg version="1.1" viewBox="0.0 0.0 960.0 720.0" fill="none" stroke="none" stroke-linecap="square" stroke-miterlimit="10" xmlns="http://www.w3.org/2000/svg" xmlns:xlink="http://www.w3.org/1999/xlink"><clipPath id="p.0"><path d="m0 0l960.0 0l0 720.0l-960.0 0l0 -720.0z" clip-rule="nonzero"></path></clipPath><g clip-path="url(#p.0)"><path fill="#000000" fill-opacity="0.0" d="m0 0l960.0 0l0 720.0l-960.0 0z" fill-rule="nonzero"></path><path fill="#e9a320" d="m384.0 296.0l56.0 0l16.0 16.0l-16.0 16.0l-56.0 0z" fill-rule="nonzero"></path><path fill="#ffffff" d="m402.71875 308.38873q0 1.265625 -0.78125 2.15625q-0.765625 0.890625 -2.15625 1.234375l0 0.046875q1.640625 0.203125 2.484375 1.0q0.84375 0.796875 0.84375 2.140625q0 1.953125 -1.421875 3.046875q-1.40625 1.09375 -4.046875 1.09375q-2.203125 0 -3.921875 -0.734375l0 -2.4375q0.796875 0.390625 1.734375 0.640625q0.953125 0.25 1.875 0.25q1.421875 0 2.09375 -0.46875q0.6875 -0.484375 0.6875 -1.5625q0 -0.953125 -0.78125 -1.34375q-0.78125 -0.40625 -2.484375 -0.40625l-1.03125 0l0 -2.203125l1.046875 0q1.578125 0 2.296875 -0.40625q0.734375 -0.40625 0.734375 -1.421875q0 -1.53125 -1.921875 -1.53125q-0.671875 0 -1.375 0.21875q-0.6875 0.21875 -1.53125 0.765625l-1.3125 -1.96875q1.84375 -1.34375 4.421875 -1.34375q2.109375 0 3.328125 0.859375q1.21875 0.859375 1.21875 2.375zm2.0083618 9.203125q0 -0.78125 0.421875 -1.171875q0.421875 -0.40625 1.21875 -0.40625q0.765625 0 1.1875 0.40625q0.421875 0.40625 0.421875 1.171875q0 0.734375 -0.421875 1.15625q-0.421875 0.421875 -1.1875 0.421875q-0.78125 0 -1.21875 -0.40625q-0.421875 -0.421875 -0.421875 -1.171875zm12.085571 1.328125l-2.859375 0l0 -7.84375l0.03125 -1.296875l0.046875 -1.40625q-0.71875 0.71875 -1.0 0.9375l-1.5625 1.25l-1.375 -1.71875l4.375 -3.484375l2.34375 0l0 13.5625zm12.977142 -6.78125q0 3.546875 -1.171875 5.265625q-1.15625 1.703125 -3.578125 1.703125q-2.34375 0 -3.546875 -1.765625q-1.1875 -1.765625 -1.1875 -5.203125q0 -3.59375 1.15625 -5.296875q1.15625 -1.703125 3.578125 -1.703125q2.34375 0 3.546875 1.78125q1.203125 1.78125 1.203125 5.21875zm-6.640625 0q0 2.5 0.421875 3.578125q0.4375 1.078125 1.46875 1.078125q1.0 0 1.4375 -1.09375q0.453125 -1.09375 0.453125 -3.5625q0 -2.5 -0.453125 -3.578125q-0.453125 -1.09375 -1.4375 -1.09375q-1.015625 0 -1.453125 1.09375q-0.4375 1.078125 -0.4375 3.578125z" fill-rule="nonzero"></path><path fill="#f1bc58" d="m216.0 56.0l16.0 0l16.0 16.0l-16.0 16.0l-16.0 0l16.0 -16.0z" fill-rule="nonzero"></path><path fill="#f1bc58" d="m232.0 56.0l56.0 0l0 32.0l-56.0 0z" fill-rule="nonzero"></path><path fill="#ffffff" d="m262.1008 68.38875q0 1.265625 -0.78125 2.15625q-0.765625 0.890625 -2.15625 1.234375l0 0.046875q1.640625 0.203125 2.484375 1.0q0.84375 0.796875 0.84375 2.140625q0 1.953125 -1.421875 3.046875q-1.40625 1.09375 -4.046875 1.09375q-2.203125 0 -3.921875 -0.734375l0 -2.4375q0.796875 0.390625 1.734375 0.640625q0.953125 0.25 1.875 0.25q1.421875 0 2.09375 -0.46875q0.6875 -0.484375 0.6875 -1.5625q0 -0.953125 -0.78125 -1.34375q-0.78125 -0.40625 -2.484375 -0.40625l-1.03125 0l0 -2.203125l1.046875 0q1.578125 0 2.296875 -0.40625q0.734375 -0.40625 0.734375 -1.421875q0 -1.53125 -1.921875 -1.53125q-0.671875 0 -1.375 0.21875q-0.6875 0.21875 -1.53125 0.765625l-1.3125 -1.96875q1.84375 -1.34375 4.421875 -1.34375q2.109375 0 3.328125 0.859375q1.21875 0.859375 1.21875 2.375zm2.0083923 9.203125q0 -0.78125 0.421875 -1.171875q0.421875 -0.40625 1.21875 -0.40625q0.765625 0 1.1875 0.40625q0.421875 0.40625 0.421875 1.171875q0 0.734375 -0.421875 1.15625q-0.421875 0.421875 -1.1875 0.421875q-0.78125 0 -1.21875 -0.40625q-0.421875 -0.421875 -0.421875 -1.171875zm9.944946 -7.34375q1.953125 0 3.109375 1.109375q1.171875 1.109375 1.171875 3.03125q0 2.265625 -1.40625 3.5q-1.390625 1.21875 -4.0 1.21875q-2.265625 0 -3.65625 -0.734375l0 -2.484375q0.734375 0.390625 1.703125 0.640625q0.984375 0.25 1.859375 0.25q2.625 0 2.625 -2.15625q0 -2.046875 -2.71875 -2.046875q-0.5 0 -1.09375 0.09375q-0.59375 0.09375 -0.953125 0.203125l-1.140625 -0.609375l0.5 -6.90625l7.359375 0l0 2.421875l-4.84375 0l-0.25 2.671875l0.328125 -0.0625q0.5625 -0.140625 1.40625 -0.140625z" fill-rule="nonzero"></path><path fill="#000000" fill-opacity="0.0" d="m288.0 56.0l184.0 0l0 32.0l-184.0 0z" fill-rule="nonzero"></path><path fill="#9d9d9d" d="m303.79688 77.86l-6.375 0l2.40625 -11.421875l6.390625 0l-0.421875 1.984375l-4.0 0l-0.515625 2.5l3.71875 0l-0.421875 1.984375l-3.734375 0l-0.625 2.953125l4.0 0l-0.421875 2.0zm13.0625 -7.328125q0 2.203125 -0.78125 3.953125q-0.765625 1.75 -2.109375 2.640625q-1.34375 0.890625 -3.09375 0.890625q-2.0 0 -3.125 -1.15625q-1.109375 -1.15625 -1.109375 -3.203125q0 -2.0625 0.765625 -3.796875q0.78125 -1.75 2.140625 -2.671875q1.359375 -0.9375 3.140625 -0.9375q1.984375 0 3.078125 1.125q1.09375 1.125 1.09375 3.15625zm-4.375 -2.265625q-0.9375 0 -1.734375 0.71875q-0.78125 0.71875 -1.234375 1.96875q-0.453125 1.25 -0.453125 2.703125q0 1.15625 0.515625 1.75q0.53125 0.578125 1.46875 0.578125q0.953125 0 1.71875 -0.671875q0.78125 -0.6875 1.21875 -1.921875q0.4375 -1.25 0.4375 -2.796875q0 -1.109375 -0.515625 -1.71875q-0.5 -0.609375 -1.421875 -0.609375zm5.2890625 9.59375l2.40625 -11.421875l2.390625 0l-2.0 9.421875l4.0 0l-0.421875 2.0l-6.375 0zm15.1953125 0.15625q-1.140625 0 -1.8125 -0.828125q-0.65625 -0.84375 -0.65625 -2.34375q0 -1.546875 0.5625 -2.9375q0.5625 -1.40625 1.46875 -2.171875q0.921875 -0.78125 2.015625 -0.78125q0.765625 0 1.3125 0.328125q0.546875 0.328125 0.859375 0.953125l0.0625 0l0.4375 -1.109375l1.8125 0l-1.859375 8.734375l-1.78125 0l0.109375 -1.140625l-0.03125 0q-1.046875 1.296875 -2.5 1.296875zm0.921875 -1.90625q0.546875 0 1.046875 -0.515625q0.5 -0.53125 0.796875 -1.421875q0.3125 -0.890625 0.3125 -2.03125q0 -0.546875 -0.3125 -0.90625q-0.296875 -0.375 -0.78125 -0.375q-0.53125 0 -1.015625 0.5625q-0.484375 0.5625 -0.765625 1.484375q-0.28125 0.921875 -0.28125 1.828125q0 0.6875 0.25 1.03125q0.265625 0.34375 0.75 0.34375zm9.4296875 0q0.515625 0 1.265625 -0.265625l0 1.75q-0.859375 0.421875 -2.078125 0.421875q-1.171875 0 -1.71875 -0.484375q-0.546875 -0.5 -0.546875 -1.53125q0 -0.390625 0.09375 -0.875l0.890625 -4.21875l-1.1875 0l0.234375 -1.140625l1.53125 -0.65625l1.03125 -1.84375l1.515625 0l-0.390625 1.859375l2.21875 0l-0.390625 1.78125l-2.203125 0l-0.90625 4.21875q-0.046875 0.234375 -0.046875 0.40625q0 0.578125 0.6875 0.578125zm15.328125 -7.234375q0 1.21875 -0.734375 2.046875q-0.734375 0.828125 -2.046875 1.0625l0 0.03125q1.03125 0.203125 1.546875 0.828125q0.53125 0.625 0.53125 1.578125q0 1.03125 -0.578125 1.859375q-0.578125 0.8125 -1.65625 1.28125q-1.078125 0.453125 -2.546875 0.453125q-1.875 0 -3.03125 -0.625l0 -2.078125q0.65625 0.390625 1.421875 0.59375q0.765625 0.1875 1.5 0.1875q1.234375 0 1.890625 -0.484375q0.671875 -0.5 0.671875 -1.390625q0 -1.34375 -2.015625 -1.34375l-1.078125 0l0.359375 -1.71875l0.5625 0q1.3125 0 2.0625 -0.484375q0.75 -0.484375 0.75 -1.34375q0 -0.53125 -0.34375 -0.8125q-0.328125 -0.296875 -0.9375 -0.296875q-1.046875 0 -2.25 0.78125l-0.984375 -1.59375q0.96875 -0.625 1.8125 -0.875q0.84375 -0.265625 1.921875 -0.265625q1.484375 0 2.328125 0.71875q0.84375 0.703125 0.84375 1.890625zm0.390625 8.078125q0 -0.703125 0.40625 -1.125q0.421875 -0.421875 1.1875 -0.421875q0.53125 0 0.84375 0.296875q0.328125 0.296875 0.328125 0.84375q0 0.671875 -0.4375 1.109375q-0.421875 0.421875 -1.125 0.421875q-0.5625 0 -0.890625 -0.296875q-0.3125 -0.296875 -0.3125 -0.828125zm10.0 -10.703125q0.953125 0 1.671875 0.328125q0.734375 0.328125 1.109375 0.921875q0.375 0.59375 0.375 1.359375q0 1.046875 -0.625 1.828125q-0.625 0.78125 -1.796875 1.1875q1.6875 1.09375 1.6875 2.84375q0 0.953125 -0.5 1.71875q-0.484375 0.75 -1.40625 1.171875q-0.921875 0.40625 -2.140625 0.40625q-1.671875 0 -2.625 -0.78125q-0.953125 -0.78125 -0.953125 -2.109375q0 -2.328125 2.71875 -3.328125q-1.296875 -1.03125 -1.296875 -2.34375q0 -0.921875 0.453125 -1.65625q0.453125 -0.734375 1.3125 -1.140625q0.859375 -0.40625 2.015625 -0.40625zm-1.09375 6.578125q-0.90625 0.359375 -1.359375 0.84375q-0.4375 0.484375 -0.4375 1.1875q0 0.640625 0.390625 1.015625q0.390625 0.359375 1.0625 0.359375q0.71875 0 1.140625 -0.40625q0.4375 -0.421875 0.4375 -1.09375q0 -0.5625 -0.296875 -1.015625q-0.28125 -0.46875 -0.9375 -0.890625zm0.875 -4.8125q-0.59375 0 -0.953125 0.359375q-0.34375 0.359375 -0.34375 0.9375q0 1.03125 0.96875 1.5625q1.4375 -0.5625 1.4375 -1.71875q0 -0.53125 -0.3125 -0.828125q-0.296875 -0.3125 -0.796875 -0.3125zm14.125 0.9375q0.46875 0 0.75 0.09375l-0.515625 2.265625q-0.34375 -0.125 -0.78125 -0.125q-0.90625 0 -1.59375 0.71875q-0.671875 0.703125 -0.96875 2.046875l-0.828125 3.90625l-2.34375 0l1.84375 -8.734375l1.796875 0l-0.15625 1.609375l0.046875 0q1.140625 -1.78125 2.75 -1.78125zm5.59375 1.703125q-0.6875 0 -1.296875 0.625q-0.609375 0.625 -0.796875 1.515625l0.359375 0q1.203125 0 1.875 -0.375q0.6875 -0.375 0.6875 -1.03125q0 -0.734375 -0.828125 -0.734375zm-1.28125 7.359375q-1.640625 0 -2.546875 -0.875q-0.90625 -0.890625 -0.90625 -2.5q0 -1.625 0.640625 -2.953125q0.65625 -1.328125 1.75 -2.03125q1.109375 -0.703125 2.5 -0.703125q1.375 0 2.140625 0.640625q0.78125 0.640625 0.78125 1.75q0 1.453125 -1.3125 2.25q-1.296875 0.796875 -3.71875 0.796875l-0.390625 0l-0.015625 0.15625l0 0.15625q0 0.71875 0.390625 1.125q0.40625 0.40625 1.15625 0.40625q0.6875 0 1.234375 -0.140625q0.5625 -0.15625 1.34375 -0.53125l0 1.78125q-1.34375 0.671875 -3.046875 0.671875zm7.3984375 -0.15625l-2.34375 0l2.578125 -12.15625l2.34375 0l-2.578125 12.15625zm7.546875 -7.203125q-0.6875 0 -1.296875 0.625q-0.609375 0.625 -0.796875 1.515625l0.359375 0q1.203125 0 1.875 -0.375q0.6875 -0.375 0.6875 -1.03125q0 -0.734375 -0.828125 -0.734375zm-1.28125 7.359375q-1.640625 0 -2.546875 -0.875q-0.90625 -0.890625 -0.90625 -2.5q0 -1.625 0.640625 -2.953125q0.65625 -1.328125 1.75 -2.03125q1.109375 -0.703125 2.5 -0.703125q1.375 0 2.140625 0.640625q0.78125 0.640625 0.78125 1.75q0 1.453125 -1.3125 2.25q-1.296875 0.796875 -3.71875 0.796875l-0.390625 0l-0.015625 0.15625l0 0.15625q0 0.71875 0.390625 1.125q0.40625 0.40625 1.15625 0.40625q0.6875 0 1.234375 -0.140625q0.5625 -0.15625 1.34375 -0.53125l0 1.78125q-1.34375 0.671875 -3.046875 0.671875zm7.9296875 0q-1.140625 0 -1.8125 -0.828125q-0.65625 -0.84375 -0.65625 -2.34375q0 -1.546875 0.5625 -2.9375q0.5625 -1.40625 1.46875 -2.171875q0.921875 -0.78125 2.015625 -0.78125q0.765625 0 1.3125 0.328125q0.546875 0.328125 0.859375 0.953125l0.0625 0l0.4375 -1.109375l1.8125 0l-1.859375 8.734375l-1.78125 0l0.109375 -1.140625l-0.03125 0q-1.046875 1.296875 -2.5 1.296875zm0.921875 -1.90625q0.546875 0 1.046875 -0.515625q0.5 -0.53125 0.796875 -1.421875q0.3125 -0.890625 0.3125 -2.03125q0 -0.546875 -0.3125 -0.90625q-0.296875 -0.375 -0.78125 -0.375q-0.53125 0 -1.015625 0.5625q-0.484375 0.5625 -0.765625 1.484375q-0.28125 0.921875 -0.28125 1.828125q0 0.6875 0.25 1.03125q0.265625 0.34375 0.75 0.34375zm11.8984375 -1.140625q0 1.46875 -0.984375 2.265625q-0.96875 0.78125 -2.703125 0.78125q-0.828125 0 -1.453125 -0.125q-0.625 -0.109375 -1.15625 -0.390625l0 -1.9375q1.21875 0.703125 2.484375 0.703125q0.625 0 1.015625 -0.25q0.40625 -0.25 0.40625 -0.6875q0 -0.34375 -0.296875 -0.609375q-0.28125 -0.265625 -1.015625 -0.671875q-0.9375 -0.53125 -1.3125 -1.046875q-0.375 -0.53125 -0.375 -1.25q0 -1.328125 0.859375 -2.0625q0.859375 -0.734375 2.46875 -0.734375q1.5625 0 2.828125 0.75l-0.765625 1.671875q-1.09375 -0.65625 -2.015625 -0.65625q-0.453125 0 -0.734375 0.203125q-0.265625 0.203125 -0.265625 0.53125q0 0.3125 0.25 0.546875q0.25 0.21875 0.9375 0.578125q0.96875 0.484375 1.390625 1.0625q0.4375 0.578125 0.4375 1.328125zm6.5234375 -4.3125q-0.6875 0 -1.296875 0.625q-0.609375 0.625 -0.796875 1.515625l0.359375 0q1.203125 0 1.875 -0.375q0.6875 -0.375 0.6875 -1.03125q0 -0.734375 -0.828125 -0.734375zm-1.28125 7.359375q-1.640625 0 -2.546875 -0.875q-0.90625 -0.890625 -0.90625 -2.5q0 -1.625 0.640625 -2.953125q0.65625 -1.328125 1.75 -2.03125q1.109375 -0.703125 2.5 -0.703125q1.375 0 2.140625 0.640625q0.78125 0.640625 0.78125 1.75q0 1.453125 -1.3125 2.25q-1.296875 0.796875 -3.71875 0.796875l-0.390625 0l-0.015625 0.15625l0 0.15625q0 0.71875 0.390625 1.125q0.40625 0.40625 1.15625 0.40625q0.6875 0 1.234375 -0.140625q0.5625 -0.15625 1.34375 -0.53125l0 1.78125q-1.34375 0.671875 -3.046875 0.671875z" fill-rule="nonzero"></path><path fill="#000000" fill-opacity="0.0" d="m336.0 96.0l184.0 0l0 32.0l-184.0 0z" fill-rule="nonzero"></path><path fill="#9d9d9d" d="m351.79688 117.86l-6.375 0l2.40625 -11.421875l6.390625 0l-0.421875 1.984375l-4.0 0l-0.515625 2.5l3.71875 0l-0.421875 1.984375l-3.734375 0l-0.625 2.953125l4.0 0l-0.421875 2.0zm13.0625 -7.328125q0 2.203125 -0.78125 3.953125q-0.765625 1.75 -2.109375 2.640625q-1.34375 0.890625 -3.09375 0.890625q-2.0 0 -3.125 -1.15625q-1.109375 -1.15625 -1.109375 -3.203125q0 -2.0625 0.765625 -3.796875q0.78125 -1.75 2.140625 -2.671875q1.359375 -0.9375 3.140625 -0.9375q1.984375 0 3.078125 1.125q1.09375 1.125 1.09375 3.15625zm-4.375 -2.265625q-0.9375 0 -1.734375 0.71875q-0.78125 0.71875 -1.234375 1.96875q-0.453125 1.25 -0.453125 2.703125q0 1.15625 0.515625 1.75q0.53125 0.578125 1.46875 0.578125q0.953125 0 1.71875 -0.671875q0.78125 -0.6875 1.21875 -1.921875q0.4375 -1.25 0.4375 -2.796875q0 -1.109375 -0.515625 -1.71875q-0.5 -0.609375 -1.421875 -0.609375zm5.2890625 9.59375l2.40625 -11.421875l2.390625 0l-2.0 9.421875l4.0 0l-0.421875 2.0l-6.375 0zm15.1953125 0.15625q-1.140625 0 -1.8125 -0.828125q-0.65625 -0.84375 -0.65625 -2.34375q0 -1.546875 0.5625 -2.9375q0.5625 -1.40625 1.46875 -2.171875q0.921875 -0.78125 2.015625 -0.78125q0.765625 0 1.3125 0.328125q0.546875 0.328125 0.859375 0.953125l0.0625 0l0.4375 -1.109375l1.8125 0l-1.859375 8.734375l-1.78125 0l0.109375 -1.140625l-0.03125 0q-1.046875 1.296875 -2.5 1.296875zm0.921875 -1.90625q0.546875 0 1.046875 -0.515625q0.5 -0.53125 0.796875 -1.421875q0.3125 -0.890625 0.3125 -2.03125q0 -0.546875 -0.3125 -0.90625q-0.296875 -0.375 -0.78125 -0.375q-0.53125 0 -1.015625 0.5625q-0.484375 0.5625 -0.765625 1.484375q-0.28125 0.921875 -0.28125 1.828125q0 0.6875 0.25 1.03125q0.265625 0.34375 0.75 0.34375zm9.4296875 0q0.515625 0 1.265625 -0.265625l0 1.75q-0.859375 0.421875 -2.078125 0.421875q-1.171875 0 -1.71875 -0.484375q-0.546875 -0.5 -0.546875 -1.53125q0 -0.390625 0.09375 -0.875l0.890625 -4.21875l-1.1875 0l0.234375 -1.140625l1.53125 -0.65625l1.03125 -1.84375l1.515625 0l-0.390625 1.859375l2.21875 0l-0.390625 1.78125l-2.203125 0l-0.90625 4.21875q-0.046875 0.234375 -0.046875 0.40625q0 0.578125 0.6875 0.578125zm15.328125 -7.234375q0 1.21875 -0.734375 2.046875q-0.734375 0.828125 -2.046875 1.0625l0 0.03125q1.03125 0.203125 1.546875 0.828125q0.53125 0.625 0.53125 1.578125q0 1.03125 -0.578125 1.859375q-0.578125 0.8125 -1.65625 1.28125q-1.078125 0.453125 -2.546875 0.453125q-1.875 0 -3.03125 -0.625l0 -2.078125q0.65625 0.390625 1.421875 0.59375q0.765625 0.1875 1.5 0.1875q1.234375 0 1.890625 -0.484375q0.671875 -0.5 0.671875 -1.390625q0 -1.34375 -2.015625 -1.34375l-1.078125 0l0.359375 -1.71875l0.5625 0q1.3125 0 2.0625 -0.484375q0.75 -0.484375 0.75 -1.34375q0 -0.53125 -0.34375 -0.8125q-0.328125 -0.296875 -0.9375 -0.296875q-1.046875 0 -2.25 0.78125l-0.984375 -1.59375q0.96875 -0.625 1.8125 -0.875q0.84375 -0.265625 1.921875 -0.265625q1.484375 0 2.328125 0.71875q0.84375 0.703125 0.84375 1.890625zm0.390625 8.078125q0 -0.703125 0.40625 -1.125q0.421875 -0.421875 1.1875 -0.421875q0.53125 0 0.84375 0.296875q0.328125 0.296875 0.328125 0.84375q0 0.671875 -0.4375 1.109375q-0.421875 0.421875 -1.125 0.421875q-0.5625 0 -0.890625 -0.296875q-0.3125 -0.296875 -0.3125 -0.828125zm12.890625 -6.921875q0 2.1875 -0.78125 4.171875q-0.765625 1.96875 -2.0625 2.890625q-1.28125 0.921875 -3.140625 0.921875q-1.0 0 -1.875 -0.25l0 -2.0q0.875 0.3125 1.78125 0.3125q0.9375 0 1.609375 -0.375q0.6875 -0.390625 1.125 -1.078125q0.453125 -0.703125 0.78125 -2.015625l-0.03125 0q-0.859375 1.234375 -2.296875 1.234375q-1.28125 0 -1.984375 -0.8125q-0.6875 -0.8125 -0.6875 -2.234375q0 -1.296875 0.5625 -2.375q0.578125 -1.09375 1.53125 -1.625q0.96875 -0.546875 2.234375 -0.546875q1.59375 0 2.40625 0.96875q0.828125 0.953125 0.828125 2.8125zm-3.484375 -1.84375q-0.515625 0 -0.90625 0.328125q-0.390625 0.328125 -0.609375 0.890625q-0.21875 0.5625 -0.21875 1.203125q0 0.671875 0.296875 1.03125q0.296875 0.34375 0.828125 0.34375q0.46875 0 0.859375 -0.28125q0.40625 -0.296875 0.640625 -0.78125q0.25 -0.5 0.25 -1.25q0 -0.65625 -0.28125 -1.0625q-0.28125 -0.421875 -0.859375 -0.421875zm14.5 0.765625q0.46875 0 0.75 0.09375l-0.515625 2.265625q-0.34375 -0.125 -0.78125 -0.125q-0.90625 0 -1.59375 0.71875q-0.671875 0.703125 -0.96875 2.046875l-0.828125 3.90625l-2.34375 0l1.84375 -8.734375l1.796875 0l-0.15625 1.609375l0.046875 0q1.140625 -1.78125 2.75 -1.78125zm5.59375 1.703125q-0.6875 0 -1.296875 0.625q-0.609375 0.625 -0.796875 1.515625l0.359375 0q1.203125 0 1.875 -0.375q0.6875 -0.375 0.6875 -1.03125q0 -0.734375 -0.828125 -0.734375zm-1.28125 7.359375q-1.640625 0 -2.546875 -0.875q-0.90625 -0.890625 -0.90625 -2.5q0 -1.625 0.640625 -2.953125q0.65625 -1.328125 1.75 -2.03125q1.109375 -0.703125 2.5 -0.703125q1.375 0 2.140625 0.640625q0.78125 0.640625 0.78125 1.75q0 1.453125 -1.3125 2.25q-1.296875 0.796875 -3.71875 0.796875l-0.390625 0l-0.015625 0.15625l0 0.15625q0 0.71875 0.390625 1.125q0.40625 0.40625 1.15625 0.40625q0.6875 0 1.234375 -0.140625q0.5625 -0.15625 1.34375 -0.53125l0 1.78125q-1.34375 0.671875 -3.046875 0.671875zm7.3984375 -0.15625l-2.34375 0l2.578125 -12.15625l2.34375 0l-2.578125 12.15625zm7.546875 -7.203125q-0.6875 0 -1.296875 0.625q-0.609375 0.625 -0.796875 1.515625l0.359375 0q1.203125 0 1.875 -0.375q0.6875 -0.375 0.6875 -1.03125q0 -0.734375 -0.828125 -0.734375zm-1.28125 7.359375q-1.640625 0 -2.546875 -0.875q-0.90625 -0.890625 -0.90625 -2.5q0 -1.625 0.640625 -2.953125q0.65625 -1.328125 1.75 -2.03125q1.109375 -0.703125 2.5 -0.703125q1.375 0 2.140625 0.640625q0.78125 0.640625 0.78125 1.75q0 1.453125 -1.3125 2.25q-1.296875 0.796875 -3.71875 0.796875l-0.390625 0l-0.015625 0.15625l0 0.15625q0 0.71875 0.390625 1.125q0.40625 0.40625 1.15625 0.40625q0.6875 0 1.234375 -0.140625q0.5625 -0.15625 1.34375 -0.53125l0 1.78125q-1.34375 0.671875 -3.046875 0.671875zm7.9296875 0q-1.140625 0 -1.8125 -0.828125q-0.65625 -0.84375 -0.65625 -2.34375q0 -1.546875 0.5625 -2.9375q0.5625 -1.40625 1.46875 -2.171875q0.921875 -0.78125 2.015625 -0.78125q0.765625 0 1.3125 0.328125q0.546875 0.328125 0.859375 0.953125l0.0625 0l0.4375 -1.109375l1.8125 0l-1.859375 8.734375l-1.78125 0l0.109375 -1.140625l-0.03125 0q-1.046875 1.296875 -2.5 1.296875zm0.921875 -1.90625q0.546875 0 1.046875 -0.515625q0.5 -0.53125 0.796875 -1.421875q0.3125 -0.890625 0.3125 -2.03125q0 -0.546875 -0.3125 -0.90625q-0.296875 -0.375 -0.78125 -0.375q-0.53125 0 -1.015625 0.5625q-0.484375 0.5625 -0.765625 1.484375q-0.28125 0.921875 -0.28125 1.828125q0 0.6875 0.25 1.03125q0.265625 0.34375 0.75 0.34375zm11.8984375 -1.140625q0 1.46875 -0.984375 2.265625q-0.96875 0.78125 -2.703125 0.78125q-0.828125 0 -1.453125 -0.125q-0.625 -0.109375 -1.15625 -0.390625l0 -1.9375q1.21875 0.703125 2.484375 0.703125q0.625 0 1.015625 -0.25q0.40625 -0.25 0.40625 -0.6875q0 -0.34375 -0.296875 -0.609375q-0.28125 -0.265625 -1.015625 -0.671875q-0.9375 -0.53125 -1.3125 -1.046875q-0.375 -0.53125 -0.375 -1.25q0 -1.328125 0.859375 -2.0625q0.859375 -0.734375 2.46875 -0.734375q1.5625 0 2.828125 0.75l-0.765625 1.671875q-1.09375 -0.65625 -2.015625 -0.65625q-0.453125 0 -0.734375 0.203125q-0.265625 0.203125 -0.265625 0.53125q0 0.3125 0.25 0.546875q0.25 0.21875 0.9375 0.578125q0.96875 0.484375 1.390625 1.0625q0.4375 0.578125 0.4375 1.328125zm6.5234375 -4.3125q-0.6875 0 -1.296875 0.625q-0.609375 0.625 -0.796875 1.515625l0.359375 0q1.203125 0 1.875 -0.375q0.6875 -0.375 0.6875 -1.03125q0 -0.734375 -0.828125 -0.734375zm-1.28125 7.359375q-1.640625 0 -2.546875 -0.875q-0.90625 -0.890625 -0.90625 -2.5q0 -1.625 0.640625 -2.953125q0.65625 -1.328125 1.75 -2.03125q1.109375 -0.703125 2.5 -0.703125q1.375 0 2.140625 0.640625q0.78125 0.640625 0.78125 1.75q0 1.453125 -1.3125 2.25q-1.296875 0.796875 -3.71875 0.796875l-0.390625 0l-0.015625 0.15625l0 0.15625q0 0.71875 0.390625 1.125q0.40625 0.40625 1.15625 0.40625q0.6875 0 1.234375 -0.140625q0.5625 -0.15625 1.34375 -0.53125l0 1.78125q-1.34375 0.671875 -3.046875 0.671875z" fill-rule="nonzero"></path><path fill="#000000" fill-opacity="0.0" d="m384.0 136.0l184.0 0l0 32.0l-184.0 0z" fill-rule="nonzero"></path><path fill="#9d9d9d" d="m399.79688 157.86l-6.375 0l2.40625 -11.421875l6.390625 0l-0.421875 1.984375l-4.0 0l-0.515625 2.5l3.71875 0l-0.421875 1.984375l-3.734375 0l-0.625 2.953125l4.0 0l-0.421875 2.0zm13.0625 -7.328125q0 2.203125 -0.78125 3.953125q-0.765625 1.75 -2.109375 2.640625q-1.34375 0.890625 -3.09375 0.890625q-2.0 0 -3.125 -1.15625q-1.109375 -1.15625 -1.109375 -3.203125q0 -2.0625 0.765625 -3.796875q0.78125 -1.75 2.140625 -2.671875q1.359375 -0.9375 3.140625 -0.9375q1.984375 0 3.078125 1.125q1.09375 1.125 1.09375 3.15625zm-4.375 -2.265625q-0.9375 0 -1.734375 0.71875q-0.78125 0.71875 -1.234375 1.96875q-0.453125 1.25 -0.453125 2.703125q0 1.15625 0.515625 1.75q0.53125 0.578125 1.46875 0.578125q0.953125 0 1.71875 -0.671875q0.78125 -0.6875 1.21875 -1.921875q0.4375 -1.25 0.4375 -2.796875q0 -1.109375 -0.515625 -1.71875q-0.5 -0.609375 -1.421875 -0.609375zm5.2890625 9.59375l2.40625 -11.421875l2.390625 0l-2.0 9.421875l4.0 0l-0.421875 2.0l-6.375 0zm15.1953125 0.15625q-1.140625 0 -1.8125 -0.828125q-0.65625 -0.84375 -0.65625 -2.34375q0 -1.546875 0.5625 -2.9375q0.5625 -1.40625 1.46875 -2.171875q0.921875 -0.78125 2.015625 -0.78125q0.765625 0 1.3125 0.328125q0.546875 0.328125 0.859375 0.953125l0.0625 0l0.4375 -1.109375l1.8125 0l-1.859375 8.734375l-1.78125 0l0.109375 -1.140625l-0.03125 0q-1.046875 1.296875 -2.5 1.296875zm0.921875 -1.90625q0.546875 0 1.046875 -0.515625q0.5 -0.53125 0.796875 -1.421875q0.3125 -0.890625 0.3125 -2.03125q0 -0.546875 -0.3125 -0.90625q-0.296875 -0.375 -0.78125 -0.375q-0.53125 0 -1.015625 0.5625q-0.484375 0.5625 -0.765625 1.484375q-0.28125 0.921875 -0.28125 1.828125q0 0.6875 0.25 1.03125q0.265625 0.34375 0.75 0.34375zm9.4296875 0q0.515625 0 1.265625 -0.265625l0 1.75q-0.859375 0.421875 -2.078125 0.421875q-1.171875 0 -1.71875 -0.484375q-0.546875 -0.5 -0.546875 -1.53125q0 -0.390625 0.09375 -0.875l0.890625 -4.21875l-1.1875 0l0.234375 -1.140625l1.53125 -0.65625l1.03125 -1.84375l1.515625 0l-0.390625 1.859375l2.21875 0l-0.390625 1.78125l-2.203125 0l-0.90625 4.21875q-0.046875 0.234375 -0.046875 0.40625q0 0.578125 0.6875 0.578125zm15.328125 -7.234375q0 1.21875 -0.734375 2.046875q-0.734375 0.828125 -2.046875 1.0625l0 0.03125q1.03125 0.203125 1.546875 0.828125q0.53125 0.625 0.53125 1.578125q0 1.03125 -0.578125 1.859375q-0.578125 0.8125 -1.65625 1.28125q-1.078125 0.453125 -2.546875 0.453125q-1.875 0 -3.03125 -0.625l0 -2.078125q0.65625 0.390625 1.421875 0.59375q0.765625 0.1875 1.5 0.1875q1.234375 0 1.890625 -0.484375q0.671875 -0.5 0.671875 -1.390625q0 -1.34375 -2.015625 -1.34375l-1.078125 0l0.359375 -1.71875l0.5625 0q1.3125 0 2.0625 -0.484375q0.75 -0.484375 0.75 -1.34375q0 -0.53125 -0.34375 -0.8125q-0.328125 -0.296875 -0.9375 -0.296875q-1.046875 0 -2.25 0.78125l-0.984375 -1.59375q0.96875 -0.625 1.8125 -0.875q0.84375 -0.265625 1.921875 -0.265625q1.484375 0 2.328125 0.71875q0.84375 0.703125 0.84375 1.890625zm0.390625 8.078125q0 -0.703125 0.40625 -1.125q0.421875 -0.421875 1.1875 -0.421875q0.53125 0 0.84375 0.296875q0.328125 0.296875 0.328125 0.84375q0 0.671875 -0.4375 1.109375q-0.421875 0.421875 -1.125 0.421875q-0.5625 0 -0.890625 -0.296875q-0.3125 -0.296875 -0.3125 -0.828125zm9.734375 0.90625l-2.375 0l1.40625 -6.484375q0.265625 -1.1875 0.59375 -2.234375q-0.078125 0.0625 -0.484375 0.375q-0.40625 0.296875 -2.046875 1.3125l-1.046875 -1.671875l4.421875 -2.71875l1.953125 0l-2.421875 11.421875zm12.109375 -7.90625q0 3.671875 -1.3125 5.875q-1.3125 2.1875 -3.6875 2.1875q-1.546875 0 -2.359375 -0.953125q-0.796875 -0.953125 -0.796875 -2.859375q0 -2.3125 0.65625 -4.1875q0.65625 -1.875 1.78125 -2.8125q1.125 -0.953125 2.609375 -0.953125q3.109375 0 3.109375 3.703125zm-3.328125 -1.75q-0.625 0 -1.171875 0.8125q-0.53125 0.8125 -0.90625 2.359375q-0.375 1.546875 -0.375 2.875q0 0.90625 0.203125 1.359375q0.21875 0.453125 0.765625 0.453125q0.640625 0 1.171875 -0.828125q0.546875 -0.828125 0.90625 -2.34375q0.375 -1.53125 0.375 -3.015625q0 -0.875 -0.25 -1.265625q-0.234375 -0.40625 -0.71875 -0.40625zm14.203125 0.75q0.46875 0 0.75 0.09375l-0.515625 2.265625q-0.34375 -0.125 -0.78125 -0.125q-0.90625 0 -1.59375 0.71875q-0.671875 0.703125 -0.96875 2.046875l-0.828125 3.90625l-2.34375 0l1.84375 -8.734375l1.796875 0l-0.15625 1.609375l0.046875 0q1.140625 -1.78125 2.75 -1.78125zm5.59375 1.703125q-0.6875 0 -1.296875 0.625q-0.609375 0.625 -0.796875 1.515625l0.359375 0q1.203125 0 1.875 -0.375q0.6875 -0.375 0.6875 -1.03125q0 -0.734375 -0.828125 -0.734375zm-1.28125 7.359375q-1.640625 0 -2.546875 -0.875q-0.90625 -0.890625 -0.90625 -2.5q0 -1.625 0.640625 -2.953125q0.65625 -1.328125 1.75 -2.03125q1.109375 -0.703125 2.5 -0.703125q1.375 0 2.140625 0.640625q0.78125 0.640625 0.78125 1.75q0 1.453125 -1.3125 2.25q-1.296875 0.796875 -3.71875 0.796875l-0.390625 0l-0.015625 0.15625l0 0.15625q0 0.71875 0.390625 1.125q0.40625 0.40625 1.15625 0.40625q0.6875 0 1.234375 -0.140625q0.5625 -0.15625 1.34375 -0.53125l0 1.78125q-1.34375 0.671875 -3.046875 0.671875zm7.3984375 -0.15625l-2.34375 0l2.578125 -12.15625l2.34375 0l-2.578125 12.15625zm7.546875 -7.203125q-0.6875 0 -1.296875 0.625q-0.609375 0.625 -0.796875 1.515625l0.359375 0q1.203125 0 1.875 -0.375q0.6875 -0.375 0.6875 -1.03125q0 -0.734375 -0.828125 -0.734375zm-1.28125 7.359375q-1.640625 0 -2.546875 -0.875q-0.90625 -0.890625 -0.90625 -2.5q0 -1.625 0.640625 -2.953125q0.65625 -1.328125 1.75 -2.03125q1.109375 -0.703125 2.5 -0.703125q1.375 0 2.140625 0.640625q0.78125 0.640625 0.78125 1.75q0 1.453125 -1.3125 2.25q-1.296875 0.796875 -3.71875 0.796875l-0.390625 0l-0.015625 0.15625l0 0.15625q0 0.71875 0.390625 1.125q0.40625 0.40625 1.15625 0.40625q0.6875 0 1.234375 -0.140625q0.5625 -0.15625 1.34375 -0.53125l0 1.78125q-1.34375 0.671875 -3.046875 0.671875zm7.9296875 0q-1.140625 0 -1.8125 -0.828125q-0.65625 -0.84375 -0.65625 -2.34375q0 -1.546875 0.5625 -2.9375q0.5625 -1.40625 1.46875 -2.171875q0.921875 -0.78125 2.015625 -0.78125q0.765625 0 1.3125 0.328125q0.546875 0.328125 0.859375 0.953125l0.0625 0l0.4375 -1.109375l1.8125 0l-1.859375 8.734375l-1.78125 0l0.109375 -1.140625l-0.03125 0q-1.046875 1.296875 -2.5 1.296875zm0.921875 -1.90625q0.546875 0 1.046875 -0.515625q0.5 -0.53125 0.796875 -1.421875q0.3125 -0.890625 0.3125 -2.03125q0 -0.546875 -0.3125 -0.90625q-0.296875 -0.375 -0.78125 -0.375q-0.53125 0 -1.015625 0.5625q-0.484375 0.5625 -0.765625 1.484375q-0.28125 0.921875 -0.28125 1.828125q0 0.6875 0.25 1.03125q0.265625 0.34375 0.75 0.34375zm11.8984375 -1.140625q0 1.46875 -0.984375 2.265625q-0.96875 0.78125 -2.703125 0.78125q-0.828125 0 -1.453125 -0.125q-0.625 -0.109375 -1.15625 -0.390625l0 -1.9375q1.21875 0.703125 2.484375 0.703125q0.625 0 1.015625 -0.25q0.40625 -0.25 0.40625 -0.6875q0 -0.34375 -0.296875 -0.609375q-0.28125 -0.265625 -1.015625 -0.671875q-0.9375 -0.53125 -1.3125 -1.046875q-0.375 -0.53125 -0.375 -1.25q0 -1.328125 0.859375 -2.0625q0.859375 -0.734375 2.46875 -0.734375q1.5625 0 2.828125 0.75l-0.765625 1.671875q-1.09375 -0.65625 -2.015625 -0.65625q-0.453125 0 -0.734375 0.203125q-0.265625 0.203125 -0.265625 0.53125q0 0.3125 0.25 0.546875q0.25 0.21875 0.9375 0.578125q0.96875 0.484375 1.390625 1.0625q0.4375 0.578125 0.4375 1.328125zm6.5234375 -4.3125q-0.6875 0 -1.296875 0.625q-0.609375 0.625 -0.796875 1.515625l0.359375 0q1.203125 0 1.875 -0.375q0.6875 -0.375 0.6875 -1.03125q0 -0.734375 -0.828125 -0.734375zm-1.28125 7.359375q-1.640625 0 -2.546875 -0.875q-0.90625 -0.890625 -0.90625 -2.5q0 -1.625 0.640625 -2.953125q0.65625 -1.328125 1.75 -2.03125q1.109375 -0.703125 2.5 -0.703125q1.375 0 2.140625 0.640625q0.78125 0.640625 0.78125 1.75q0 1.453125 -1.3125 2.25q-1.296875 0.796875 -3.71875 0.796875l-0.390625 0l-0.015625 0.15625l0 0.15625q0 0.71875 0.390625 1.125q0.40625 0.40625 1.15625 0.40625q0.6875 0 1.234375 -0.140625q0.5625 -0.15625 1.34375 -0.53125l0 1.78125q-1.34375 0.671875 -3.046875 0.671875z" fill-rule="nonzero"></path><path fill="#8d1a18" d="m384.0 136.0l4.0 0l0 192.0l-4.0 0z" fill-rule="nonzero"></path><path fill="#e9a320" d="m336.0 256.0l104.0 0l16.0 16.0l-16.0 16.0l-104.0 0z" fill-rule="nonzero"></path><path fill="#ffffff" d="m354.71875 268.38873q0 1.265625 -0.78125 2.15625q-0.765625 0.890625 -2.15625 1.234375l0 0.046875q1.640625 0.203125 2.484375 1.0q0.84375 0.796875 0.84375 2.140625q0 1.953125 -1.421875 3.046875q-1.40625 1.09375 -4.046875 1.09375q-2.203125 0 -3.921875 -0.734375l0 -2.4375q0.796875 0.390625 1.734375 0.640625q0.953125 0.25 1.875 0.25q1.421875 0 2.09375 -0.46875q0.6875 -0.484375 0.6875 -1.5625q0 -0.953125 -0.78125 -1.34375q-0.78125 -0.40625 -2.484375 -0.40625l-1.03125 0l0 -2.203125l1.046875 0q1.578125 0 2.296875 -0.40625q0.734375 -0.40625 0.734375 -1.421875q0 -1.53125 -1.921875 -1.53125q-0.671875 0 -1.375 0.21875q-0.6875 0.21875 -1.53125 0.765625l-1.3125 -1.96875q1.84375 -1.34375 4.421875 -1.34375q2.109375 0 3.328125 0.859375q1.21875 0.859375 1.21875 2.375zm2.0083618 9.203125q0 -0.78125 0.421875 -1.171875q0.421875 -0.40625 1.21875 -0.40625q0.765625 0 1.1875 0.40625q0.421875 0.40625 0.421875 1.171875q0 0.734375 -0.421875 1.15625q-0.421875 0.421875 -1.1875 0.421875q-0.78125 0 -1.21875 -0.40625q-0.421875 -0.421875 -0.421875 -1.171875zm14.429321 -6.453125q0 4.015625 -1.6875 6.0q-1.6875 1.96875 -5.109375 1.96875q-1.203125 0 -1.828125 -0.125l0 -2.3125q0.78125 0.203125 1.625 0.203125q1.4375 0 2.359375 -0.421875q0.9375 -0.421875 1.421875 -1.328125q0.5 -0.90625 0.578125 -2.5l-0.109375 0q-0.546875 0.875 -1.25 1.234375q-0.703125 0.34375 -1.765625 0.34375q-1.765625 0 -2.796875 -1.125q-1.015625 -1.140625 -1.015625 -3.171875q0 -2.171875 1.234375 -3.4375q1.25 -1.265625 3.375 -1.265625q1.5 0 2.625 0.703125q1.140625 0.703125 1.734375 2.046875q0.609375 1.34375 0.609375 3.1875zm-4.90625 -3.640625q-0.890625 0 -1.390625 0.609375q-0.5 0.609375 -0.5 1.765625q0 0.984375 0.453125 1.5625q0.453125 0.578125 1.375 0.578125q0.875 0 1.5 -0.5625q0.625 -0.578125 0.625 -1.328125q0 -1.109375 -0.59375 -1.859375q-0.578125 -0.765625 -1.46875 -0.765625z" fill-rule="nonzero"></path><path fill="#8d1a18" d="m336.0 96.0l4.0 0l0 192.0l-4.0 0z" fill-rule="nonzero"></path><path fill="#e9a320" d="m288.0 216.0l152.0 0l16.0 16.0l-16.0 16.0l-152.0 0z" fill-rule="nonzero"></path><path fill="#ffffff" d="m306.71875 228.38875q0 1.265625 -0.78125 2.15625q-0.765625 0.890625 -2.15625 1.234375l0 0.046875q1.640625 0.203125 2.484375 1.0q0.84375 0.796875 0.84375 2.140625q0 1.953125 -1.421875 3.046875q-1.40625 1.09375 -4.046875 1.09375q-2.203125 0 -3.921875 -0.734375l0 -2.4375q0.796875 0.390625 1.734375 0.640625q0.953125 0.25 1.875 0.25q1.421875 0 2.09375 -0.46875q0.6875 -0.484375 0.6875 -1.5625q0 -0.953125 -0.78125 -1.34375q-0.78125 -0.40625 -2.484375 -0.40625l-1.03125 0l0 -2.203125l1.046875 0q1.578125 0 2.296875 -0.40625q0.734375 -0.40625 0.734375 -1.421875q0 -1.53125 -1.921875 -1.53125q-0.671875 0 -1.375 0.21875q-0.6875 0.21875 -1.53125 0.765625l-1.3125 -1.96875q1.84375 -1.34375 4.421875 -1.34375q2.109375 0 3.328125 0.859375q1.21875 0.859375 1.21875 2.375zm2.0083618 9.203125q0 -0.78125 0.421875 -1.171875q0.421875 -0.40625 1.21875 -0.40625q0.765625 0 1.1875 0.40625q0.421875 0.40625 0.421875 1.171875q0 0.734375 -0.421875 1.15625q-0.421875 0.421875 -1.1875 0.421875q-0.78125 0 -1.21875 -0.40625q-0.421875 -0.421875 -0.421875 -1.171875zm9.679321 -12.40625q1.953125 0 3.140625 0.890625q1.1875 0.875 1.1875 2.375q0 1.046875 -0.578125 1.859375q-0.5625 0.8125 -1.84375 1.453125q1.515625 0.8125 2.171875 1.703125q0.671875 0.875 0.671875 1.9375q0 1.671875 -1.3125 2.6875q-1.296875 1.015625 -3.4375 1.015625q-2.234375 0 -3.5 -0.9375q-1.265625 -0.953125 -1.265625 -2.6875q0 -1.171875 0.609375 -2.0625q0.625 -0.90625 1.984375 -1.59375q-1.15625 -0.734375 -1.671875 -1.5625q-0.515625 -0.828125 -0.515625 -1.828125q0 -1.453125 1.203125 -2.34375q1.21875 -0.90625 3.15625 -0.90625zm-2.109375 10.125q0 0.796875 0.546875 1.25q0.5625 0.4375 1.53125 0.4375q1.0625 0 1.59375 -0.453125q0.53125 -0.46875 0.53125 -1.21875q0 -0.625 -0.53125 -1.15625q-0.53125 -0.546875 -1.703125 -1.15625q-1.96875 0.90625 -1.96875 2.296875zm2.09375 -8.03125q-0.734375 0 -1.1875 0.375q-0.453125 0.375 -0.453125 1.0q0 0.5625 0.359375 1.0q0.359375 0.4375 1.296875 0.90625q0.90625 -0.421875 1.265625 -0.859375q0.359375 -0.453125 0.359375 -1.046875q0 -0.640625 -0.46875 -1.0q-0.453125 -0.375 -1.171875 -0.375z" fill-rule="nonzero"></path><path fill="#8d1a18" d="m288.0 56.0l4.0 0l0 192.0l-4.0 0z" fill-rule="nonzero"></path><path fill="#f1bc58" d="m216.0 96.0l16.0 0l16.0 16.0l-16.0 16.0l-16.0 0l16.0 -16.0z" fill-rule="nonzero"></path><path fill="#f1bc58" d="m232.0 96.0l104.0 0l0 32.0l-104.0 0z" fill-rule="nonzero"></path><path fill="#ffffff" d="m310.1008 108.38875q0 1.265625 -0.78125 2.15625q-0.765625 0.890625 -2.15625 1.234375l0 0.046875q1.640625 0.203125 2.484375 1.0q0.84375 0.796875 0.84375 2.140625q0 1.953125 -1.421875 3.046875q-1.40625 1.09375 -4.046875 1.09375q-2.203125 0 -3.921875 -0.734375l0 -2.4375q0.796875 0.390625 1.734375 0.640625q0.953125 0.25 1.875 0.25q1.421875 0 2.09375 -0.46875q0.6875 -0.484375 0.6875 -1.5625q0 -0.953125 -0.78125 -1.34375q-0.78125 -0.40625 -2.484375 -0.40625l-1.03125 0l0 -2.203125l1.046875 0q1.578125 0 2.296875 -0.40625q0.734375 -0.40625 0.734375 -1.421875q0 -1.53125 -1.921875 -1.53125q-0.671875 0 -1.375 0.21875q-0.6875 0.21875 -1.53125 0.765625l-1.3125 -1.96875q1.84375 -1.34375 4.421875 -1.34375q2.109375 0 3.328125 0.859375q1.21875 0.859375 1.21875 2.375zm2.0083923 9.203125q0 -0.78125 0.421875 -1.171875q0.421875 -0.40625 1.21875 -0.40625q0.765625 0 1.1875 0.40625q0.421875 0.40625 0.421875 1.171875q0 0.734375 -0.421875 1.15625q-0.421875 0.421875 -1.1875 0.421875q-0.78125 0 -1.21875 -0.40625q-0.421875 -0.421875 -0.421875 -1.171875zm4.9136963 -4.4375q0 -4.015625 1.703125 -5.984375q1.703125 -1.96875 5.09375 -1.96875q1.15625 0 1.8125 0.140625l0 2.28125q-0.8125 -0.171875 -1.625 -0.171875q-1.484375 0 -2.421875 0.453125q-0.921875 0.4375 -1.390625 1.3125q-0.453125 0.859375 -0.546875 2.46875l0.125 0q0.921875 -1.578125 2.9375 -1.578125q1.828125 0 2.859375 1.140625q1.03125 1.140625 1.03125 3.15625q0 2.171875 -1.234375 3.4375q-1.21875 1.265625 -3.390625 1.265625q-1.5 0 -2.625 -0.6875q-1.109375 -0.703125 -1.71875 -2.03125q-0.609375 -1.34375 -0.609375 -3.234375zm4.890625 3.65625q0.921875 0 1.40625 -0.609375q0.5 -0.625 0.5 -1.765625q0 -0.984375 -0.46875 -1.546875q-0.453125 -0.578125 -1.375 -0.578125q-0.875 0 -1.5 0.5625q-0.609375 0.5625 -0.609375 1.3125q0 1.109375 0.578125 1.875q0.578125 0.75 1.46875 0.75z" fill-rule="nonzero"></path><path fill="#f1bc58" d="m216.0 136.0l16.0 0l16.0 16.0l-16.0 16.0l-16.0 0l16.0 -16.0z" fill-rule="nonzero"></path><path fill="#f1bc58" d="m232.0 136.0l152.0 0l0 32.0l-152.0 0z" fill-rule="nonzero"></path><path fill="#ffffff" d="m358.1008 148.38875q0 1.265625 -0.78125 2.15625q-0.765625 0.890625 -2.15625 1.234375l0 0.046875q1.640625 0.203125 2.484375 1.0q0.84375 0.796875 0.84375 2.140625q0 1.953125 -1.421875 3.046875q-1.40625 1.09375 -4.046875 1.09375q-2.203125 0 -3.921875 -0.734375l0 -2.4375q0.796875 0.390625 1.734375 0.640625q0.953125 0.25 1.875 0.25q1.421875 0 2.09375 -0.46875q0.6875 -0.484375 0.6875 -1.5625q0 -0.953125 -0.78125 -1.34375q-0.78125 -0.40625 -2.484375 -0.40625l-1.03125 0l0 -2.203125l1.046875 0q1.578125 0 2.296875 -0.40625q0.734375 -0.40625 0.734375 -1.421875q0 -1.53125 -1.921875 -1.53125q-0.671875 0 -1.375 0.21875q-0.6875 0.21875 -1.53125 0.765625l-1.3125 -1.96875q1.84375 -1.34375 4.421875 -1.34375q2.109375 0 3.328125 0.859375q1.21875 0.859375 1.21875 2.375zm2.0083923 9.203125q0 -0.78125 0.421875 -1.171875q0.421875 -0.40625 1.21875 -0.40625q0.765625 0 1.1875 0.40625q0.421875 0.40625 0.421875 1.171875q0 0.734375 -0.421875 1.15625q-0.421875 0.421875 -1.1875 0.421875q-0.78125 0 -1.21875 -0.40625q-0.421875 -0.421875 -0.421875 -1.171875zm6.3511963 1.328125l5.09375 -11.140625l-6.6875 0l0 -2.40625l9.734375 0l0 1.796875l-5.140625 11.75l-3.0 0z" fill-rule="nonzero"></path></g></svg>

