<?xml version="1.0" encoding="UTF-8" standalone="no"?>
<!-- Created with Inkscape (http://www.inkscape.org/) -->

<svg
   xmlns:dc="http://purl.org/dc/elements/1.1/"
   xmlns:cc="http://creativecommons.org/ns#"
   xmlns:rdf="http://www.w3.org/1999/02/22-rdf-syntax-ns#"
   xmlns:svg="http://www.w3.org/2000/svg"
   xmlns="http://www.w3.org/2000/svg"
   xmlns:sodipodi="http://sodipodi.sourceforge.net/DTD/sodipodi-0.dtd"
   xmlns:inkscape="http://www.inkscape.org/namespaces/inkscape"
   width="131.19766"
   height="24.348354"
   viewBox="0 0 34.712715 6.4421686"
   id="svg2"
   version="1.1"
   inkscape:version="0.91+devel r13964"
   sodipodi:docname="logo.svg"
   inkscape:export-filename="/home/tigert/git/osas/glusterweb/source/images/logo.png"
   inkscape:export-xdpi="68.419998"
   inkscape:export-ydpi="68.419998">
  <defs
     id="defs4" />
  <sodipodi:namedview
     id="base"
     pagecolor="#171525"
     bordercolor="#666666"
     borderopacity="1.0"
     inkscape:pageopacity="0"
     inkscape:pageshadow="2"
     inkscape:zoom="11.313708"
     inkscape:cx="76.211512"
     inkscape:cy="18.128242"
     inkscape:document-units="mm"
     inkscape:current-layer="layer1"
     showgrid="true"
     inkscape:window-width="1366"
     inkscape:window-height="703"
     inkscape:window-x="0"
     inkscape:window-y="27"
     inkscape:window-maximized="1"
     fit-margin-top="1"
     fit-margin-left="1"
     fit-margin-right="1"
     fit-margin-bottom="1"
     units="px">
    <inkscape:grid
       type="xygrid"
       id="grid4164"
       originx="-2.0279654"
       originy="0.046776265" />
  </sodipodi:namedview>
  <metadata
     id="metadata7">
    <rdf:RDF>
      <cc:Work
         rdf:about="">
        <dc:format>image/svg+xml</dc:format>
        <dc:type
           rdf:resource="http://purl.org/dc/dcmitype/StillImage" />
        <dc:title></dc:title>
      </cc:Work>
    </rdf:RDF>
  </metadata>
  <g
     inkscape:label="Layer 1"
     inkscape:groupmode="layer"
     id="layer1"
     transform="translate(246.41406,-56.367824)">
    <g
       style="font-style:normal;font-weight:normal;font-size:3.75426888px;line-height:1000%;font-family:sans-serif;letter-spacing:0px;word-spacing:0px;fill:#ffffff;fill-opacity:1;stroke:none;stroke-width:0.09385674px;stroke-linecap:butt;stroke-linejoin:miter;stroke-opacity:1"
       id="text4160"
       transform="matrix(0.85009208,0,0,0.85009208,-34.33756,9.3760519)">
      <path
         d="m -244.97887,61.374078 c -1.09925,0 -1.91017,-0.797407 -1.91017,-2.184984 0,-1.25693 0.72082,-2.094882 1.85611,-2.094882 0.61269,0 0.95058,0.121638 1.43263,0.409966 0.0946,0.05857 0.18921,0.0901 0.27931,0.0901 0.13966,0 0.25679,-0.07659 0.34239,-0.20273 l 0.4415,-0.671263 c -0.5271,-0.504574 -1.34252,-0.883004 -2.44177,-0.883004 -2.11741,0 -3.46895,1.392082 -3.46895,3.351811 0,1.923687 1.43263,3.356316 3.35181,3.356316 1.07222,0 1.8426,-0.211741 2.51386,-0.702799 l 0,-2.770651 -2.33365,0 0,0.837953 c 0,0.157679 0.11263,0.270307 0.30635,0.270307 l 0.64874,0 0,0.995632 c -0.28833,0.121639 -0.59919,0.198226 -1.01816,0.198226 z"
         style="font-style:normal;font-variant:normal;font-weight:900;font-stretch:normal;font-size:9.01024437px;font-family:Lato;-inkscape-font-specification:'Lato Heavy';fill:#ffffff;stroke-width:0.09385674px"
         id="path4167"
         inkscape:connector-curvature="0" />
      <path
         d="m -240.12334,55.909365 -1.52273,0 0,6.563963 3.9555,0 0,-1.216383 -2.43277,0 0,-5.34758 z"
         style="font-style:normal;font-variant:normal;font-weight:900;font-stretch:normal;font-size:9.01024437px;font-family:Lato;-inkscape-font-specification:'Lato Heavy';fill:#ffffff;stroke-width:0.09385674px"
         id="path4169"
         inkscape:connector-curvature="0" />
      <path
         d="m -234.23486,61.27046 c -0.81543,0 -1.29747,-0.558635 -1.29747,-1.47768 l 0,-3.883415 -1.52274,0 0,3.88792 c 0,1.608329 1.06772,2.748125 2.82021,2.748125 1.74348,0 2.82021,-1.139796 2.82021,-2.748125 l 0,-3.88792 -1.52273,0 0,3.88792 c 0,0.919045 -0.48205,1.473175 -1.29748,1.473175 z"
         style="font-style:normal;font-variant:normal;font-weight:900;font-stretch:normal;font-size:9.01024437px;font-family:Lato;-inkscape-font-specification:'Lato Heavy';fill:#ffffff;stroke-width:0.09385674px"
         id="path4171"
         inkscape:connector-curvature="0" />
      <path
         d="m -226.38187,56.535577 c -0.46853,-0.432492 -1.20287,-0.698294 -2.00928,-0.698294 -1.44164,0 -2.25256,0.959591 -2.25256,1.950718 0,2.450786 2.91932,1.554267 2.91932,2.78867 0,0.527099 -0.31987,0.761366 -0.874,0.761366 -0.81993,0 -1.15781,-0.549625 -1.51372,-0.549625 -0.13966,0 -0.2658,0.07208 -0.33338,0.180205 l -0.45051,0.711809 c 0.51358,0.513584 1.43713,0.864984 2.25256,0.864984 1.4957,0 2.35167,-0.964097 2.35167,-2.175974 0,-2.1985 -2.92832,-1.594814 -2.92832,-2.658023 0,-0.414471 0.27481,-0.675768 0.84696,-0.675768 0.66676,0 1.00464,0.423482 1.27945,0.423482 0.15768,0 0.24328,-0.07208 0.33338,-0.216246 l 0.37843,-0.707304 z"
         style="font-style:normal;font-variant:normal;font-weight:900;font-stretch:normal;font-size:9.01024437px;font-family:Lato;-inkscape-font-specification:'Lato Heavy';fill:#ffffff;stroke-width:0.09385674px"
         id="path4173"
         inkscape:connector-curvature="0" />
      <path
         d="m -220.75976,55.909365 0,1.207372 -1.8471,0 0,5.356591 -1.52273,0 0,-5.356591 -1.8471,0 0,-1.207372 5.21693,0 z"
         style="font-style:normal;font-variant:normal;font-weight:900;font-stretch:normal;font-size:9.01024437px;font-family:Lato;-inkscape-font-specification:'Lato Heavy';fill:#ffffff;stroke-width:0.09385674px"
         id="path4175"
         inkscape:connector-curvature="0" />
      <path
         d="m -220.12355,55.909365 0,6.563963 4.2258,0 0,-1.171332 -2.69406,0 0,-1.563278 2.06335,0 0,-1.12628 -2.06335,0 0,-1.531742 2.69406,0 0,-1.171331 -4.2258,0 z"
         style="font-style:normal;font-variant:normal;font-weight:900;font-stretch:normal;font-size:9.01024437px;font-family:Lato;-inkscape-font-specification:'Lato Heavy';fill:#ffffff;stroke-width:0.09385674px"
         id="path4177"
         inkscape:connector-curvature="0" />
      <path
         d="m -213.12752,60.045067 c 0.23427,0 0.3469,0.06758 0.4415,0.234266 l 1.09024,1.905667 c 0.11263,0.19372 0.29284,0.288328 0.54963,0.288328 l 1.37857,0 -1.39659,-2.284097 c -0.13065,-0.216246 -0.31536,-0.36041 -0.51809,-0.464028 0.85147,-0.324369 1.32,-1.027168 1.32,-1.869626 0,-1.11727 -0.73884,-1.946212 -2.64,-1.946212 l -2.13543,0 0,6.563963 1.52273,0 0,-2.428261 0.38744,0 z m -0.38744,-2.995906 0.6127,0 c 0.78839,0 1.15331,0.342389 1.15331,0.919044 0,0.576656 -0.32437,1.027168 -1.15331,1.027168 l -0.6127,0 0,-1.946212 z"
         style="font-style:normal;font-variant:normal;font-weight:900;font-stretch:normal;font-size:9.01024437px;font-family:Lato;-inkscape-font-specification:'Lato Heavy';fill:#ffffff;stroke-width:0.09385674px"
         id="path4179"
         inkscape:connector-curvature="0" />
    </g>
  </g>
</svg>
